<svg width="91" height="86" viewBox="0 0 91 86" fill="none" xmlns="http://www.w3.org/2000/svg">
<path d="M46.0129 84.6191C45.5907 84.9386 45.0201 84.9501 44.5864 84.6305C40.8434 81.8803 36.8836 79.404 33.4943 76.2315C29.8882 72.8537 26.9097 68.483 26.4533 63.5645C26.3049 62.0126 26.4304 60.4149 26.9668 58.9542C28.553 54.6634 33.8482 52.3469 38.2417 53.6136C42.6352 54.8803 45.682 59.0569 46.2183 63.5075C46.2183 63.5645 46.3096 63.576 46.321 63.5075C47.1769 60.8029 47.4737 59.5476 49.2083 57.1854C50.9429 54.8232 53.8413 52.8718 56.854 53.0201C60.2433 53.1799 63.2674 55.9301 64.112 59.2281C66.052 66.8397 59.3988 72.9678 56.9567 75.3414C53.6131 78.5938 49.7217 81.7434 46.0015 84.6191H46.0129Z" fill="#E75837"/>
<path d="M45.2938 86.0002C44.8031 86.0002 44.3239 85.8518 43.913 85.5437C42.8632 84.7677 41.7905 84.0146 40.7178 83.2614C38.0018 81.3556 35.2059 79.3814 32.7182 77.0534C29.6484 74.1777 25.8597 69.5103 25.3234 63.6561C25.1522 61.7732 25.3462 60.0614 25.9054 58.5437C27.6514 53.7964 33.4599 51.0234 38.5724 52.5069C42.0187 53.4997 44.9173 56.2841 46.4008 59.7761C46.823 58.7719 47.3822 57.7791 48.3065 56.5124C50.5546 53.4655 53.7956 51.7195 56.9338 51.8792C60.7453 52.0618 64.2487 55.0289 65.2415 58.9431C67.2842 66.9655 60.7909 73.2419 58.0179 75.9237L57.7782 76.1519C54.1721 79.6553 49.9726 82.9989 46.7203 85.5095C46.3095 85.829 45.8074 85.9888 45.3053 85.9888L45.2938 86.0002ZM35.7423 54.4012C32.4215 54.4012 29.1235 56.3869 28.0394 59.3425C27.6057 60.5293 27.446 61.9215 27.5943 63.4507C28.0736 68.5859 31.4971 72.7854 34.2816 75.3873C36.6552 77.6012 39.3826 79.5298 42.0301 81.3899C43.1142 82.1545 44.1983 82.919 45.271 83.7064H45.3167C48.5234 81.2301 52.6544 77.9435 56.1806 74.5086L56.4202 74.269C58.908 71.8611 64.7394 66.2351 63.0162 59.5022C62.2745 56.5923 59.6041 54.2871 56.8082 54.1616C54.0124 54.036 51.5132 55.9874 50.1324 57.8704C48.6603 59.8674 48.3179 60.9629 47.6332 63.154L47.1425 64.7288L45.2482 64.5919L45.0884 63.6333C44.5863 59.4452 41.6421 55.7706 37.9333 54.6979C37.2144 54.4925 36.484 54.3898 35.7423 54.3898V54.4012Z" fill="#17000B"/>
<path d="M46.2182 64.6486C45.602 64.6486 45.0999 64.1579 45.077 63.5416C44.7689 53.8531 44.7461 48.1358 44.7233 38.0479C44.7233 37.4203 45.2368 36.9067 45.8644 36.9067C46.4921 36.9067 47.0056 37.4203 47.0056 38.0479C47.0284 48.113 47.0513 53.8075 47.3594 63.4732C47.3822 64.1008 46.8801 64.6257 46.2524 64.6486C46.241 64.6486 46.2296 64.6486 46.2182 64.6486Z" fill="#17000B"/>
<path d="M89.3883 24.2627C88.3042 19.2074 84.8693 14.9394 80.8524 11.7099C72.5903 5.05683 61.7949 1.64473 51.2048 1.10838C41.7103 0.640506 32.1587 1.69038 22.9951 4.20095C18.2821 5.50189 13.6147 7.21364 9.6549 10.078C5.68363 12.9309 2.45412 17.0391 1.44989 21.8206C1.10754 23.3954 1.02766 25.0273 1.00483 26.6364C0.970594 29.3067 1.11895 31.977 1.42707 34.6245C1.6553 36.5417 2.63671 38.2877 4.16587 39.4517C6.37974 41.152 8.94737 42.3617 11.6177 43.286C28.313 49.0603 46.4576 49.163 64.0544 47.5882C65.9031 47.417 67.7632 47.2345 69.5891 46.972C70.9128 46.7894 72.2137 46.5612 73.5147 46.2531C74.382 46.0705 75.2378 45.8536 76.0937 45.6026C79.9965 44.4386 84.0363 43.0121 86.7066 39.931C87.6652 38.8355 88.6352 37.7057 89.1601 36.3477C89.6052 35.1381 89.6736 33.8143 89.7307 32.5134C89.8562 29.7403 89.9589 26.9673 89.3883 24.2627ZM70.8443 28.1199C69.4749 28.5193 68.0827 28.8731 66.6905 29.1698C66.04 29.3181 65.3667 29.4436 64.7048 29.5806C47.884 32.7987 30.116 31.4863 14.2081 25.2555C14.8015 24.4339 15.509 23.6807 16.2394 22.9618C24.0906 15.316 35.7077 12.851 46.6744 12.7597C51.5814 12.7369 70.6275 13.821 78.4788 25.2213C76.0595 26.4424 73.4918 27.3781 70.8557 28.1199H70.8443Z" fill="#E7A937" stroke="#17000B" stroke-width="2" stroke-miterlimit="10" stroke-linecap="round"/>
<path d="M83.1009 22.3906C81.6402 23.4747 80.0882 24.4105 78.4791 25.2207L83.1009 22.3906Z" fill="#E7A937"/>
<path d="M78.479 26.3624C78.0567 26.3624 77.6573 26.1342 77.4633 25.7348C77.178 25.1756 77.4063 24.4909 77.9654 24.2056C79.5745 23.3954 81.0808 22.4824 82.4274 21.4782C82.9295 21.1016 83.6485 21.2043 84.025 21.7179C84.4016 22.22 84.2989 22.9389 83.7854 23.3155C82.3361 24.3996 80.7156 25.381 78.9925 26.2483C78.8327 26.3282 78.6501 26.3738 78.479 26.3738V26.3624Z" fill="#17000B"/>
<path d="M14.2081 26.3965C14.0712 26.3965 13.9342 26.3737 13.7973 26.3166C11.2867 25.3352 8.81038 24.2283 6.43675 23.0073C5.87757 22.722 5.64934 22.0373 5.93463 21.4667C6.21992 20.8961 6.90462 20.6793 7.47521 20.9646C9.79178 22.1514 12.1997 23.2241 14.6304 24.1827C15.2123 24.4109 15.5091 25.0728 15.2808 25.6662C15.1096 26.1226 14.676 26.3965 14.2195 26.3965H14.2081Z" fill="#17000B"/>
<path d="M61.9205 43.3202C61.4527 43.3202 60.962 43.2175 60.4713 43.0006C59.6724 42.6583 59.0334 41.9622 58.7139 41.0721C58.0862 39.3261 58.8166 36.9981 60.2544 36.0966C61.3728 35.4005 62.6851 35.6401 63.7578 36.747C65.0702 38.105 65.2984 40.5471 64.2485 42.0763C63.6894 42.8865 62.8677 43.3088 61.9205 43.3088V43.3202ZM61.5896 38.0023C61.5326 38.0023 61.4869 38.0251 61.4641 38.0366C60.9734 38.3447 60.5854 39.5201 60.8593 40.3075C60.962 40.5814 61.1446 40.8096 61.3614 40.9009C62.0803 41.209 62.2629 40.9351 62.3656 40.7982C62.765 40.2162 62.7308 38.9723 62.1145 38.3447C61.8521 38.0708 61.6809 38.0023 61.5782 38.0023H61.5896Z" fill="#17000B"/>
<path d="M78.5928 45.8539C78.433 45.8539 78.2847 45.8197 78.1363 45.7512C77.5657 45.5002 77.3032 44.8269 77.5543 44.2449C78.5015 42.0995 79.403 39.9198 80.236 37.763C80.6697 36.6219 81.0235 35.6062 80.8751 34.6705C80.7496 33.8488 80.2132 33.05 79.6997 32.274L76.242 27.0475C75.8996 26.5225 76.0366 25.815 76.5615 25.4612C77.0864 25.1189 77.794 25.2558 78.1477 25.7808L81.6055 31.0073C82.1875 31.8974 82.9178 32.9929 83.1232 34.3053C83.3629 35.8002 82.895 37.181 82.3586 38.5733C81.5142 40.7643 80.6012 42.9896 79.6312 45.1578C79.4372 45.58 79.0264 45.8425 78.5928 45.8425V45.8539Z" fill="#17000B"/>
<path d="M73.5145 47.3945C72.9439 47.3945 72.4418 46.9608 72.3848 46.3674C71.7457 40.2964 70.8442 34.2254 69.7259 28.3255C69.6117 27.7093 70.0111 27.1045 70.6388 26.9903C71.2664 26.8648 71.8598 27.2756 71.974 27.9033C73.1037 33.8602 74.0052 39.9997 74.6557 46.1392C74.7242 46.7668 74.2677 47.326 73.6401 47.3945C73.5944 47.3945 73.5602 47.3945 73.5145 47.3945Z" fill="#17000B"/>
</svg>
