<svg width="400" height="400" viewBox="0 0 400 400" fill="none" xmlns="http://www.w3.org/2000/svg">
<path d="M365.753 0H34.2466C15.3327 0 0 15.3327 0 34.2466V365.753C0 384.667 15.3327 400 34.2466 400H365.753C384.667 400 400 384.667 400 365.753V34.2466C400 15.3327 384.667 0 365.753 0Z" fill="#F7F2EA"/>
<path d="M312.158 60.2739H87.7946C72.5918 60.2739 60.2673 72.5986 60.2673 87.8013V312.164C60.2673 327.367 72.5918 339.692 87.7946 339.692H312.158C327.361 339.692 339.685 327.367 339.685 312.164V87.8013C339.685 72.5986 327.361 60.2739 312.158 60.2739Z" fill="#E75837"/>
<path d="M151.336 234.582C151.301 235.24 151.253 235.897 151.192 236.548C150.527 243.13 148.39 249.459 146.534 255.808C144.096 264.144 142.13 272.609 140.644 281.164C138.932 291 137.849 300.986 138.363 310.959C138.747 318.383 140.007 325.733 141.315 333.055C141.548 334.377 141.801 335.74 142.055 337.137C142.212 337.979 142.37 338.836 142.527 339.699H87.9658C78.5068 339.699 70.1507 334.952 65.1575 327.712C66.4588 323.397 67.7808 319.075 69.1233 314.753C69.8904 312.301 70.6575 309.849 71.4384 307.39C72.2123 304.938 73 302.486 73.7945 300.034C74.589 297.582 75.3836 295.13 76.1918 292.685C84.2534 268.212 93 243.966 102.274 220.664C104.205 215.801 106.267 210.808 109.979 207.123C117.795 199.349 131.596 199.877 140.171 206.808C140.527 207.096 140.87 207.39 141.205 207.692C141.432 207.897 141.651 208.103 141.863 208.308C142.082 208.52 142.288 208.733 142.5 208.945C142.61 209.055 142.712 209.164 142.815 209.274C143.329 209.822 143.822 210.39 144.288 210.972C144.384 211.089 144.479 211.205 144.568 211.329C144.932 211.801 145.288 212.288 145.623 212.788C145.705 212.911 145.795 213.041 145.877 213.164C146.205 213.664 146.521 214.178 146.822 214.699C147.048 215.089 147.26 215.486 147.473 215.89C148.021 216.959 148.521 218.068 148.959 219.199C149.014 219.342 149.068 219.486 149.116 219.63C149.322 220.199 149.521 220.774 149.705 221.356C149.842 221.794 149.966 222.226 150.089 222.671C150.288 223.411 150.466 224.151 150.616 224.897C151.267 228.075 151.507 231.356 151.349 234.589L151.336 234.582Z" fill="#60301B"/>
<path d="M142.521 340.377C142.199 340.377 141.911 340.144 141.849 339.815L140.637 333.164C139.24 325.342 138.055 318.274 137.678 310.986C137.226 302.137 137.952 292.616 139.966 281.041C141.459 272.493 143.445 263.938 145.877 255.616C146.171 254.616 146.466 253.623 146.767 252.63C148.336 247.39 149.959 241.973 150.514 236.486C150.582 235.808 150.63 235.171 150.658 234.555C150.705 233.616 150.719 232.658 150.692 231.699C150.644 229.61 150.418 227.527 150.034 225.507C150.014 225.411 150 225.322 149.979 225.247L149.952 225.116C149.952 225.116 149.938 225.069 149.938 225.041L149.863 224.699C149.808 224.438 149.753 224.185 149.692 223.932C149.603 223.562 149.514 223.205 149.418 222.842L149.315 222.459C149.253 222.233 149.185 222.014 149.116 221.788L149.089 221.699C149.075 221.651 149.062 221.603 149.041 221.555L148.904 221.13C148.767 220.712 148.616 220.288 148.459 219.856L148.301 219.425C147.87 218.308 147.384 217.219 146.849 216.192C146.753 216.007 146.658 215.829 146.562 215.651C146.445 215.445 146.336 215.233 146.212 215.027C145.904 214.486 145.603 214 145.294 213.534C145.212 213.404 145.13 213.281 145.048 213.164C144.719 212.678 144.377 212.199 144.021 211.74C143.931 211.623 143.842 211.507 143.753 211.397C143.521 211.11 143.294 210.829 143.055 210.555C142.931 210.404 142.815 210.274 142.692 210.144C142.568 210.007 142.452 209.877 142.329 209.747C142.212 209.623 142.116 209.521 142.014 209.418C141.863 209.26 141.719 209.116 141.575 208.973L141.384 208.788C141.171 208.582 140.959 208.384 140.74 208.192C140.61 208.075 140.473 207.959 140.342 207.842L140.144 207.671C140.007 207.555 139.87 207.445 139.733 207.329C131.062 200.315 117.658 200.432 110.459 207.596C106.733 211.301 104.699 216.404 102.911 220.911C102.24 222.603 101.568 224.308 100.897 226.007C100.5 227.021 100.103 228.027 99.7123 229.034C99.4931 229.589 99.2808 230.144 99.0685 230.699C97.6233 234.425 96.1575 238.26 94.7191 242.103C94.3561 243.069 93.9931 244.041 93.6301 245.007C93.4931 245.37 93.3561 245.733 93.2191 246.096C92.8287 247.151 92.4383 248.206 92.0479 249.26C90.2671 254.096 88.4726 259.048 86.7191 263.993C86.3287 265.103 85.9315 266.212 85.5479 267.322C85.1233 268.534 84.6986 269.747 84.2739 270.959C82.8835 274.952 81.5205 278.911 80.2397 282.712C79.9931 283.445 79.7465 284.178 79.5 284.904C79.3287 285.397 79.1643 285.89 79 286.384C78.678 287.329 78.3698 288.281 78.0548 289.226C77.6506 290.445 77.2397 291.671 76.8424 292.89C76.0342 295.336 75.2397 297.788 74.4452 300.24C73.6506 302.685 72.863 305.144 72.089 307.589C71.3082 310.041 70.5342 312.493 69.7739 314.945C69.1027 317.103 68.4383 319.26 67.7739 321.418C67.4452 322.5 67.1164 323.575 66.7876 324.658C66.4931 325.616 66.2054 326.582 65.9109 327.541L65.8013 327.89C65.6917 328.253 65.3082 328.459 64.9452 328.349C64.5822 328.24 64.3767 327.856 64.4863 327.493L64.589 327.144C64.8767 326.178 65.1712 325.219 65.4657 324.253C65.7945 323.171 66.1232 322.096 66.452 321.014C67.1164 318.856 67.7808 316.692 68.452 314.534C69.2123 312.075 69.9863 309.623 70.7671 307.171C71.5411 304.719 72.3287 302.26 73.1233 299.815C73.9178 297.363 74.7123 294.911 75.5205 292.459C75.9246 291.233 76.3287 290.014 76.7328 288.788C77.0479 287.842 77.363 286.89 77.678 285.945C77.8424 285.452 78.0068 284.952 78.178 284.459C78.4178 283.733 78.6712 283 78.9178 282.267C80.2054 278.459 81.5616 274.5 82.9589 270.5C83.3835 269.288 83.8082 268.075 84.2328 266.863C84.6233 265.753 85.0137 264.644 85.4109 263.534C87.1643 258.582 88.9589 253.623 90.7465 248.788C91.137 247.733 91.5274 246.678 91.9178 245.623C92.0548 245.26 92.1917 244.897 92.3287 244.527C92.6849 243.562 93.0479 242.589 93.4178 241.623C94.863 237.781 96.3219 233.938 97.7739 230.205C97.9863 229.651 98.2054 229.089 98.4178 228.534C98.815 227.521 99.2054 226.514 99.6027 225.5C100.267 223.795 100.938 222.096 101.616 220.397C103.363 216 105.541 210.527 109.473 206.623C117.144 198.993 131.384 198.829 140.575 206.267C140.726 206.384 140.87 206.507 141.014 206.63L141.226 206.815C141.363 206.932 141.5 207.055 141.644 207.178C141.801 207.322 141.966 207.473 142.123 207.616L142.322 207.808C142.548 208.021 142.767 208.24 142.979 208.466C143.082 208.568 143.192 208.685 143.301 208.801C143.445 208.952 143.568 209.089 143.692 209.226C143.815 209.363 143.952 209.514 144.075 209.664C144.315 209.938 144.562 210.233 144.801 210.534C144.897 210.651 144.993 210.781 145.089 210.904C145.459 211.384 145.822 211.884 146.164 212.397C146.247 212.521 146.336 212.658 146.425 212.788C146.747 213.274 147.062 213.788 147.384 214.349C147.507 214.562 147.63 214.781 147.747 215C147.849 215.192 147.952 215.384 148.055 215.575C148.61 216.644 149.116 217.774 149.568 218.945L149.623 219.089C149.664 219.192 149.699 219.295 149.733 219.397C149.945 219.966 150.144 220.548 150.315 221.11L150.479 221.548L150.452 221.568C150.541 221.856 150.623 222.144 150.699 222.438L150.856 222.829L150.808 222.877C150.87 223.123 150.931 223.377 150.993 223.623C151.075 223.973 151.158 224.322 151.226 224.678L151.377 225.021L151.308 225.096C151.315 225.13 151.322 225.164 151.329 225.205C151.74 227.336 151.973 229.493 152.021 231.664C152.048 232.658 152.034 233.658 151.986 234.623C151.959 235.26 151.911 235.918 151.836 236.623C151.267 242.24 149.63 247.726 148.041 253.027C147.747 254.021 147.445 255.014 147.158 256.007C144.74 264.281 142.76 272.788 141.281 281.288C139.281 292.76 138.562 302.178 139.007 310.925C139.377 318.137 140.555 325.158 141.945 332.932L143.158 339.575C143.226 339.945 142.979 340.301 142.61 340.377C142.568 340.384 142.527 340.39 142.486 340.39L142.521 340.377Z" fill="#17000B"/>
<path d="M169.274 163.336C165.925 161.171 162.247 159.288 158.267 158.938C154.288 158.589 149.966 160.034 147.76 163.363C146.794 164.822 146.281 166.548 146.034 168.281C145.329 173.178 147.055 178.774 151.384 181.171C152.945 182.034 154.719 182.431 156.486 182.63C160.185 183.055 163.979 182.671 167.521 181.507C168.308 175.185 169.452 163.452 169.274 163.336Z" fill="#17000B"/>
<path d="M159.411 183.479C158.404 183.479 157.404 183.425 156.411 183.308C154.199 183.055 152.493 182.562 151.048 181.767C146.185 179.068 144.685 172.836 145.356 168.178C145.651 166.116 146.267 164.37 147.192 162.979C149.37 159.699 153.74 157.849 158.329 158.253C162.794 158.651 166.719 160.87 169.644 162.76C170.089 163.048 170.123 163.075 169.438 170.157C169.041 174.253 168.568 178.637 168.199 181.589L168.144 182.02L167.733 182.157C165.062 183.034 162.233 183.479 159.411 183.479ZM157.068 159.568C153.404 159.568 150.055 161.137 148.329 163.74C147.521 164.959 146.973 166.52 146.705 168.37C146.103 172.575 147.411 178.185 151.705 180.562C152.986 181.274 154.527 181.712 156.555 181.945C160 182.342 163.562 182.007 166.884 180.986C167.61 175.055 168.534 165.562 168.596 163.719C165.842 161.959 162.219 159.972 158.199 159.616C157.815 159.582 157.438 159.568 157.062 159.568H157.068Z" fill="#17000B"/>
<path d="M327.027 192.733C318.664 183.226 310.021 173.178 307.171 160.842C306.144 156.39 305.918 151.794 305.569 147.24C304.973 139.418 304.007 131.616 302.671 123.884C301.308 115.993 299.541 108.089 296.075 100.877C290.534 89.3424 280.623 79.9657 268.795 75.0821C256.966 70.1986 243.349 69.7876 231.253 73.9589C216.014 79.2123 200.39 90.0616 193.021 101.089C190.466 104.911 190.075 109.931 190.904 114.452C191.575 118.13 193.247 121.548 194.301 125.137C195.356 128.726 195.753 132.774 193.966 136.062C192.664 138.459 190.377 140.137 188.151 141.719C184.096 144.596 179.993 147.418 176.069 150.473C172.651 153.13 169.329 156.007 166.863 159.562C160.11 169.315 161.027 182.945 166.706 193.356C172.384 203.767 181.678 212.157 192.288 217.473C215.569 229.137 242.822 218.431 256.178 214.322C276.712 208.007 325.945 193.363 327.027 192.726V192.733Z" fill="#60301B"/>
<path d="M216.164 223.459C208.123 223.459 199.849 222.027 191.986 218.089C180.836 212.5 171.651 203.836 166.11 193.692C159.76 182.062 159.842 168.514 166.301 159.178C168.911 155.411 172.486 152.391 175.651 149.938C178.808 147.486 182.116 145.144 185.322 142.884C186.13 142.308 186.945 141.74 187.753 141.164C189.685 139.795 192.082 138.089 193.363 135.74C194.801 133.089 194.897 129.589 193.644 125.336C193.247 123.986 192.747 122.63 192.267 121.322C191.473 119.158 190.651 116.918 190.226 114.582C189.658 111.493 189.199 105.575 192.445 100.712C199.767 89.7604 215.267 78.7467 231.027 73.3152C243.253 69.1028 257.11 69.5138 269.055 74.4522C281.014 79.3974 291.089 88.9179 296.692 100.582C300.342 108.178 302.103 116.569 303.349 123.767C304.685 131.493 305.658 139.37 306.253 147.185L306.39 149.007C306.671 152.877 306.959 156.877 307.842 160.692C310.719 173.158 319.658 183.322 327.548 192.288L328.096 192.911L327.384 193.329C326.719 193.719 314.39 197.459 288.377 205.301C276.527 208.877 264.267 212.569 256.384 214.993C255.164 215.37 253.822 215.801 252.384 216.267C243.158 219.24 230 223.473 216.164 223.473V223.459ZM248.5 71.7878C242.712 71.7878 236.925 72.7261 231.473 74.6028C215.979 79.9453 200.753 90.7398 193.589 101.466C190.603 105.932 191.048 111.438 191.575 114.329C191.979 116.548 192.781 118.733 193.555 120.843C194.041 122.171 194.548 123.548 194.959 124.938C196.322 129.555 196.192 133.404 194.569 136.384C193.144 139.014 190.596 140.822 188.548 142.274C187.74 142.849 186.925 143.425 186.11 143.993C182.918 146.247 179.616 148.575 176.486 151.007C173.411 153.397 169.925 156.329 167.425 159.945C161.349 168.719 161.301 182.014 167.308 193.021C172.712 202.925 181.692 211.391 192.596 216.849C213.493 227.322 237.575 219.569 251.959 214.938C253.404 214.473 254.753 214.041 255.979 213.664C263.863 211.24 276.123 207.548 287.979 203.973C303.89 199.178 321.719 193.801 325.856 192.425C318.027 183.521 309.384 173.432 306.507 160.986C305.603 157.075 305.308 153.021 305.027 149.096L304.89 147.281C304.301 139.507 303.329 131.671 302 123.993C300.774 116.884 299.034 108.61 295.459 101.164C290 89.8015 280.185 80.5206 268.534 75.7056C262.226 73.096 255.363 71.7809 248.507 71.7809L248.5 71.7878Z" fill="#17000B"/>
<path d="M200.26 141.726C199.459 143.774 199.884 146.418 201.692 147.678C202.795 148.452 204.212 148.61 205.555 148.575C210.616 148.445 215.329 145.931 219.363 142.87C221.13 141.527 222.979 139.616 222.541 137.445C222.219 135.877 220.76 134.781 219.26 134.212C213.596 132.062 202.555 135.911 200.267 141.733L200.26 141.726Z" fill="#FDF5DE"/>
<path d="M205.24 149.26C203.575 149.26 202.281 148.925 201.301 148.24C199.363 146.884 198.644 143.979 199.63 141.479C200.747 138.63 203.973 135.959 208.253 134.336C212.356 132.781 216.664 132.486 219.5 133.568C221.534 134.342 222.884 135.705 223.205 137.308C223.616 139.322 222.459 141.377 219.774 143.418C214.74 147.233 210.096 149.151 205.575 149.267C205.466 149.267 205.349 149.267 205.24 149.267V149.26ZM200.897 141.973C200.253 143.61 200.452 145.973 202.082 147.11C202.89 147.678 203.986 147.918 205.534 147.884C209.76 147.774 214.151 145.952 218.945 142.315C221.178 140.623 222.158 139.027 221.863 137.568C221.637 136.452 220.568 135.431 219.007 134.836C213.87 132.884 203.068 136.431 200.897 141.966V141.973Z" fill="#17000B"/>
<path d="M195.048 128.699C194.945 128.699 194.842 128.678 194.747 128.63C194.404 128.466 194.267 128.055 194.431 127.712C196.027 124.452 199.685 121.089 204.226 118.712C209.452 115.979 215.384 114.795 220.925 115.39C221.301 115.431 221.575 115.767 221.534 116.144C221.493 116.521 221.157 116.795 220.781 116.753C208.87 115.479 198.37 122.781 195.664 128.315C195.548 128.555 195.301 128.699 195.048 128.699Z" fill="#17000B"/>
<path d="M175.706 206.116C175.349 206.116 175.041 205.836 175.021 205.473C175 205.096 175.288 204.774 175.664 204.747C176.438 204.699 177.295 204.493 178.206 204.137C182.199 202.568 185.644 199.377 187.904 195.137C189.89 191.411 190.959 186.979 191.069 181.966C191.075 181.589 191.37 181.281 191.767 181.295C192.144 181.301 192.445 181.616 192.438 181.993C192.322 187.219 191.206 191.863 189.117 195.781C186.706 200.301 183.007 203.719 178.712 205.411C177.664 205.822 176.671 206.055 175.754 206.11C175.74 206.11 175.726 206.11 175.712 206.11L175.706 206.116Z" fill="#17000B"/>
<path d="M238.986 171.226C238.76 171.226 238.541 171.116 238.411 170.918C233.294 163.075 230.144 153.226 229.048 141.637C228.075 131.363 228.774 120.938 229.445 110.849C229.473 110.473 229.794 110.178 230.171 110.212C230.548 110.24 230.836 110.562 230.808 110.938C230.137 120.973 229.445 131.342 230.404 141.5C231.479 152.863 234.555 162.507 239.548 170.158C239.753 170.473 239.664 170.897 239.349 171.103C239.233 171.178 239.103 171.212 238.973 171.212L238.986 171.226Z" fill="#17000B"/>
<path d="M293.863 147.247C293.596 147.247 293.336 147.089 293.226 146.822C289.904 138.699 285.911 129.322 280.644 120.829C275.027 111.788 268.527 104.726 261.322 99.8426C261.007 99.6303 260.925 99.2056 261.137 98.8906C261.349 98.5755 261.774 98.4933 262.089 98.7056C269.459 103.699 276.089 110.897 281.801 120.103C287.13 128.685 291.144 138.123 294.486 146.295C294.63 146.644 294.459 147.048 294.11 147.185C294.027 147.219 293.938 147.24 293.849 147.24L293.863 147.247Z" fill="#17000B"/>
<path d="M249.808 169.979C249.575 169.979 249.349 169.863 249.226 169.651C245.171 163 242.534 155.397 241.589 147.664C241.541 147.288 241.808 146.945 242.185 146.904C242.555 146.856 242.904 147.123 242.945 147.5C243.863 155.041 246.438 162.452 250.39 168.945C250.589 169.267 250.486 169.692 250.164 169.884C250.055 169.952 249.932 169.986 249.808 169.986V169.979Z" fill="#17000B"/>
<path d="M261.596 164.096C261.596 164.096 261.548 164.096 261.527 164.096C261.281 164.068 261.068 163.918 260.973 163.692C260.966 163.671 260.952 163.651 260.945 163.63C260.678 162.945 255.288 149.596 252.219 142.877C252.062 142.534 252.219 142.123 252.555 141.973C252.897 141.815 253.308 141.973 253.459 142.308C255.123 145.966 257.418 151.431 259.048 155.37C261.014 160.13 261.829 162.089 262.11 162.973C262.151 163.02 262.185 163.075 262.212 163.137L262.164 163.157C262.295 163.61 262.233 163.692 262.144 163.822C262.014 164 261.808 164.11 261.589 164.11L261.596 164.096Z" fill="#17000B"/>
<path d="M272.932 158.528C272.678 158.528 272.432 158.384 272.315 158.144C272.301 158.117 272.288 158.082 272.281 158.055C271.966 157.315 267.062 146.254 264.199 139.836C264.041 139.493 264.199 139.082 264.548 138.932C264.891 138.781 265.301 138.932 265.452 139.281C266.863 142.438 268.891 147.007 270.569 150.788C271.404 152.678 272.158 154.37 272.699 155.596L273.336 157.041C273.404 157.199 273.466 157.343 273.521 157.48C273.527 157.493 273.541 157.514 273.548 157.528H273.541C273.678 157.932 273.671 158.254 273.233 158.459C273.137 158.5 273.041 158.528 272.945 158.528H272.932Z" fill="#17000B"/>
<path d="M284.856 152.589C284.568 152.589 284.301 152.404 284.205 152.116C282.096 145.589 279.089 139.384 275.274 133.678C275.062 133.363 275.151 132.938 275.459 132.726C275.774 132.514 276.199 132.603 276.411 132.911C280.294 138.719 283.356 145.041 285.507 151.692C285.623 152.055 285.425 152.438 285.068 152.555C285 152.575 284.925 152.589 284.856 152.589Z" fill="#17000B"/>
<path d="M216.356 339.685H136.966C136.425 336.657 135.877 333.562 135.336 330.514C134.541 326.048 133.76 321.678 133.048 317.76C138.123 315.363 142.993 312.603 147.678 309.555C156.911 303.541 165.431 296.404 173.466 288.719C175.404 286.863 177.315 284.973 179.199 283.062C182.63 279.589 185.973 276.034 189.247 272.445C192.219 269.192 195.158 265.897 198.082 262.596C203.733 270.055 206.342 279.657 208.438 288.911C208.541 289.363 208.644 289.822 208.747 290.294C208.808 290.575 208.87 290.863 208.931 291.151C209.014 291.527 209.089 291.911 209.171 292.301C209.171 292.308 209.171 292.315 209.171 292.329C209.205 292.5 209.24 292.671 209.274 292.842C209.486 293.877 209.692 294.959 209.904 296.075C209.938 296.26 209.973 296.445 210.007 296.637C210.096 297.123 210.185 297.61 210.274 298.11C210.342 298.486 210.411 298.863 210.479 299.24C210.562 299.719 210.651 300.199 210.733 300.685C210.856 301.363 210.966 302.041 211.082 302.726C211.205 303.452 211.329 304.185 211.445 304.925C211.479 305.13 211.514 305.336 211.548 305.541C211.596 305.801 211.637 306.062 211.678 306.329C211.774 306.897 211.863 307.466 211.952 308.041C211.986 308.253 212.021 308.459 212.048 308.671C212.411 310.986 212.767 313.329 213.11 315.671C213.171 316.096 213.233 316.52 213.294 316.945C213.39 317.582 213.479 318.219 213.568 318.856C213.657 319.493 213.747 320.123 213.836 320.753C213.904 321.24 213.973 321.719 214.041 322.199C214.123 322.794 214.205 323.39 214.288 323.986C214.507 325.603 214.726 327.192 214.931 328.733C214.979 329.123 215.034 329.52 215.089 329.911C215.178 330.589 215.267 331.26 215.356 331.925C215.425 332.431 215.486 332.931 215.548 333.418C215.644 334.144 215.733 334.863 215.822 335.555C215.849 335.788 215.884 336.014 215.911 336.24C216.041 337.294 216.171 338.308 216.294 339.274C216.308 339.418 216.329 339.555 216.342 339.692L216.356 339.685Z" fill="#BFD3DE"/>
<path d="M136.973 340.377C136.644 340.377 136.356 340.144 136.301 339.815C135.76 336.788 135.212 333.692 134.671 330.637C133.877 326.171 133.096 321.801 132.384 317.884L132.288 317.37L132.76 317.144C137.61 314.856 142.5 312.11 147.308 308.986C155.726 303.507 164.13 296.719 173 288.233C174.89 286.425 176.815 284.527 178.712 282.589C181.856 279.404 185.137 275.938 188.74 271.993C191.89 268.541 194.973 265.082 197.568 262.151L198.123 261.527L198.63 262.192C204.507 269.959 207.123 279.979 209.11 288.767C209.212 289.219 209.315 289.685 209.418 290.157C209.486 290.479 209.548 290.747 209.603 291.021C209.685 291.39 209.76 291.781 209.842 292.178V292.192C209.884 292.363 209.918 292.541 209.952 292.719C210.164 293.753 210.37 294.836 210.582 295.952L210.685 296.521C210.774 297 210.863 297.493 210.952 297.993L211.226 299.514C211.288 299.863 211.349 300.219 211.411 300.575C211.527 301.247 211.644 301.931 211.76 302.616C211.884 303.342 212.007 304.082 212.123 304.822C212.158 305.027 212.192 305.24 212.226 305.452C212.267 305.699 212.315 305.966 212.356 306.233C212.452 306.801 212.541 307.37 212.63 307.945L212.733 308.582C213.096 310.89 213.452 313.24 213.795 315.582L214.979 323.897C215.185 325.404 215.39 326.89 215.582 328.336L216.041 331.829C216.11 332.336 216.171 332.836 216.233 333.329L217.034 339.692C217.034 340.068 216.726 340.377 216.349 340.377C215.973 340.377 215.692 340.103 215.664 339.747L214.87 333.5C214.808 333.014 214.747 332.514 214.678 332.014L214.219 328.521C214.027 327.075 213.822 325.589 213.616 324.082L212.438 315.781C212.096 313.445 211.74 311.103 211.377 308.788L211.281 308.157C211.192 307.582 211.103 307.014 211.007 306.445C210.966 306.178 210.925 305.925 210.877 305.664C210.842 305.452 210.808 305.247 210.774 305.048C210.651 304.301 210.534 303.568 210.404 302.842C210.288 302.157 210.171 301.479 210.055 300.801C209.993 300.445 209.931 300.096 209.87 299.747L209.596 298.226C209.507 297.733 209.418 297.24 209.329 296.76L209.226 296.199C209.014 295.096 208.808 294.014 208.596 292.979C208.562 292.808 208.527 292.644 208.493 292.479L208.479 292.404C208.404 292.027 208.329 291.664 208.253 291.301C208.199 291.027 208.137 290.76 208.082 290.5C207.966 289.973 207.863 289.514 207.767 289.062C205.87 280.671 203.397 271.137 198.027 263.685C195.548 266.479 192.678 269.699 189.747 272.911C186.13 276.87 182.842 280.349 179.685 283.548C177.774 285.493 175.842 287.397 173.938 289.219C165.007 297.767 156.541 304.603 148.048 310.13C143.349 313.192 138.562 315.884 133.815 318.157C134.5 321.945 135.247 326.13 136.007 330.404C136.548 333.452 137.096 336.548 137.637 339.575C137.705 339.945 137.452 340.301 137.082 340.37C137.041 340.377 137 340.384 136.959 340.384L136.973 340.377Z" fill="#17000B"/>
<path d="M124.123 218.445C124.041 218.445 123.952 218.431 123.87 218.397C123.521 218.253 123.349 217.856 123.493 217.507C125.932 211.473 128.671 205.466 131.651 199.671C131.822 199.336 132.233 199.199 132.575 199.377C132.911 199.548 133.048 199.959 132.87 200.301C129.918 206.062 127.192 212.021 124.767 218.021C124.658 218.288 124.404 218.452 124.13 218.452L124.123 218.445Z" fill="#17000B"/>
<path d="M135.164 223.199C135.082 223.199 135 223.185 134.925 223.157C134.569 223.027 134.39 222.63 134.521 222.274C136.699 216.459 139.062 210.623 141.541 204.925C141.692 204.575 142.096 204.418 142.445 204.568C142.795 204.719 142.952 205.123 142.801 205.473C140.336 211.151 137.979 216.966 135.808 222.76C135.705 223.034 135.445 223.205 135.164 223.205V223.199Z" fill="#17000B"/>
<path d="M142.144 230.151C142.068 230.151 141.986 230.137 141.911 230.11C141.555 229.979 141.377 229.589 141.507 229.233L147.712 212.329C147.842 211.973 148.24 211.788 148.589 211.925C148.945 212.055 149.123 212.445 148.993 212.801L142.788 229.706C142.685 229.979 142.425 230.158 142.144 230.158V230.151Z" fill="#17000B"/>
<path d="M216.356 339.692H198.918C198.87 337.527 199.575 335.329 201.069 333.774C197.089 333.637 193.637 329.829 193.616 325.849C193.596 321.87 197.089 318.199 201.069 318.02C198.829 315.726 198.76 311.794 200.61 309.178C202.459 306.562 205.89 305.308 209.069 305.678C209.973 305.781 210.849 306.007 211.692 306.329C213.569 317.993 215.267 330.883 216.356 339.685V339.692Z" fill="#745E25"/>
<path d="M217.13 340.377H198.247L198.233 339.706C198.192 337.712 198.74 335.801 199.76 334.295C196.014 333.493 192.945 329.836 192.925 325.849C192.904 321.932 195.986 318.308 199.774 317.493C198.144 314.986 198.199 311.391 200.048 308.781C201.973 306.062 205.541 304.575 209.144 305C210.075 305.11 211.014 305.343 211.938 305.692L212.308 305.836L212.37 306.226C214.384 318.747 216.164 332.514 217.041 339.61L217.137 340.377H217.13ZM199.61 339.007H215.575C214.678 331.808 212.986 318.795 211.069 306.843C210.377 306.603 209.671 306.445 208.979 306.363C205.918 306 202.774 307.295 201.158 309.575C199.445 311.993 199.617 315.569 201.548 317.541L202.617 318.637L201.089 318.706C197.452 318.87 194.274 322.206 194.295 325.849C194.315 329.521 197.548 332.973 201.089 333.089L202.617 333.144L201.555 334.247C200.404 335.452 199.712 337.158 199.61 339.007Z" fill="#17000B"/>
<path d="M209.178 292.308C207.993 293.5 206.541 294.411 204.911 294.822C200.884 295.856 196.267 293.438 194.815 289.541C193.897 292.411 190.466 293.973 187.514 293.39C184.562 292.808 182.171 290.493 180.795 287.815C180.151 286.562 179.493 284.808 179.206 283.055C182.637 279.582 185.979 276.027 189.253 272.438C192.226 269.185 195.164 265.89 198.089 262.589C203.74 270.048 206.349 279.651 208.445 288.904C208.548 289.356 208.651 289.815 208.753 290.288C208.815 290.568 208.877 290.856 208.938 291.144C209.021 291.52 209.096 291.904 209.178 292.294V292.308Z" fill="#745E25"/>
<path d="M203.007 295.74C199.747 295.74 196.479 293.918 194.815 291.116C193.343 293.363 190.308 294.637 187.377 294.062C184.486 293.486 181.795 291.274 180.185 288.13C179.404 286.603 178.801 284.794 178.527 283.171L178.473 282.829L178.719 282.582C181.863 279.397 185.144 275.931 188.747 271.986C191.911 268.527 194.986 265.068 197.575 262.144L198.13 261.521L198.637 262.185C204.514 269.952 207.13 279.973 209.116 288.76C209.219 289.212 209.322 289.678 209.425 290.157C209.486 290.445 209.548 290.726 209.61 291.021C209.692 291.39 209.767 291.781 209.849 292.178L209.925 292.534L209.664 292.794C208.343 294.13 206.753 295.062 205.082 295.493C204.404 295.664 203.706 295.753 203.014 295.753L203.007 295.74ZM194.767 287.452L195.459 289.308C196.795 292.884 201.041 295.11 204.74 294.164C206.069 293.822 207.336 293.11 208.432 292.082C208.377 291.822 208.322 291.562 208.267 291.301C208.206 291.007 208.144 290.726 208.082 290.445C207.979 289.973 207.877 289.514 207.774 289.062C205.877 280.671 203.404 271.137 198.034 263.685C195.562 266.473 192.692 269.692 189.753 272.911C186.233 276.767 183.021 280.164 179.938 283.294C180.206 284.678 180.747 286.233 181.397 287.514C182.822 290.288 185.151 292.233 187.637 292.726C190.103 293.212 193.315 291.973 194.158 289.342L194.76 287.459L194.767 287.452Z" fill="#17000B"/>
<path d="M176.671 308.822C173.74 311.973 168.753 313.164 164.87 311.322C165.164 314.651 162.39 317.808 159.11 318.432C155.822 319.055 152.356 317.425 150.281 314.808C149.26 313.521 148.205 311.527 147.692 309.548C156.925 303.534 165.445 296.397 173.479 288.712C176.199 290.719 178.336 293.521 179.281 296.754C180.493 300.884 179.61 305.664 176.671 308.815V308.822Z" fill="#745E25"/>
<path d="M157.671 319.247C154.74 319.247 151.753 317.767 149.74 315.233C148.562 313.753 147.52 311.644 147.02 309.719L146.897 309.24L147.308 308.973C155.726 303.493 164.13 296.699 173 288.219L173.418 287.822L173.884 288.164C176.836 290.342 178.986 293.329 179.938 296.568C181.267 301.075 180.178 306.068 177.178 309.288C174.205 312.486 169.466 313.685 165.555 312.336C165.274 315.5 162.596 318.466 159.24 319.103C158.726 319.199 158.199 319.247 157.678 319.247H157.671ZM148.479 309.849C148.966 311.466 149.836 313.164 150.808 314.384C152.842 316.938 156.123 318.294 158.979 317.76C162.055 317.178 164.438 314.26 164.185 311.384L164.082 310.192L165.164 310.705C168.712 312.384 173.342 311.397 176.171 308.356C178.849 305.479 179.815 301.007 178.623 296.959C177.801 294.171 176.007 291.589 173.527 289.623C164.904 297.836 156.699 304.466 148.486 309.856L148.479 309.849Z" fill="#17000B"/>
<path d="M136.973 339.692C136.432 336.664 135.884 333.568 135.342 330.514C137.041 328.692 139.288 327.377 141.733 326.897C146.295 325.993 151.308 328.034 153.938 331.877C156.39 328.74 160.137 326.651 164.096 326.205C166.356 325.952 168.753 326.253 170.63 327.527C172.514 328.801 173.726 331.192 173.178 333.39C177.007 332.178 181.055 334.11 183.575 337.233C184.137 337.925 184.616 338.767 185.027 339.692" fill="#745E25"/>
<path d="M185.027 340.377C184.767 340.377 184.514 340.226 184.397 339.966C183.993 339.048 183.541 338.274 183.041 337.658C180.425 334.425 176.637 333.007 173.384 334.041L172.219 334.411L172.514 333.226C172.959 331.438 172 329.281 170.247 328.096C168.274 326.753 165.856 326.699 164.171 326.89C160.37 327.322 156.836 329.294 154.479 332.301L153.904 333.034L153.377 332.267C150.897 328.651 146.164 326.719 141.87 327.575C139.74 328 137.692 329.116 136.082 330.747L137.651 339.582C137.719 339.952 137.466 340.308 137.096 340.377C136.726 340.445 136.37 340.192 136.301 339.822L134.616 330.308L134.849 330.055C136.692 328.089 139.089 326.733 141.603 326.233C146.123 325.336 151.082 327.192 153.973 330.774C156.534 327.863 160.151 325.966 164.021 325.527C165.938 325.315 168.706 325.39 171.021 326.966C172.938 328.26 174.062 330.425 174 332.493C177.541 331.842 181.411 333.459 184.123 336.808C184.699 337.514 185.219 338.397 185.664 339.425C185.815 339.774 185.664 340.178 185.315 340.329C185.226 340.37 185.13 340.384 185.041 340.384L185.027 340.377Z" fill="#17000B"/>
<path d="M204.918 148.575C207.705 148.575 209.966 146.316 209.966 143.527C209.966 140.74 207.705 138.479 204.918 138.479C202.13 138.479 199.87 140.74 199.87 143.527C199.87 146.316 202.13 148.575 204.918 148.575Z" fill="#17000B"/>
<path d="M204.918 149.26C201.753 149.26 199.185 146.685 199.185 143.527C199.185 140.37 201.76 137.794 204.918 137.794C208.075 137.794 210.651 140.37 210.651 143.527C210.651 146.685 208.075 149.26 204.918 149.26ZM204.918 139.164C202.514 139.164 200.555 141.123 200.555 143.527C200.555 145.931 202.514 147.89 204.918 147.89C207.322 147.89 209.281 145.931 209.281 143.527C209.281 141.123 207.322 139.164 204.918 139.164Z" fill="#17000B"/>
<path d="M339.685 200.685V312C339.685 327.295 327.288 339.699 311.986 339.699H216.356C216.342 339.555 216.322 339.418 216.308 339.274C216.185 338.308 216.055 337.295 215.925 336.24C215.897 336.014 215.863 335.781 215.836 335.555C215.747 334.856 215.651 334.144 215.562 333.418C215.5 332.932 215.438 332.431 215.37 331.925C215.281 331.267 215.199 330.596 215.103 329.911C215.055 329.521 215 329.13 214.945 328.733C214.74 327.192 214.521 325.603 214.301 323.986C214.219 323.397 214.137 322.801 214.055 322.199C213.986 321.719 213.918 321.24 213.849 320.753C213.76 320.123 213.671 319.493 213.582 318.856C213.493 318.219 213.397 317.582 213.308 316.945C213.247 316.521 213.185 316.096 213.123 315.671C212.781 313.329 212.425 310.986 212.062 308.671C212.027 308.459 212 308.253 211.966 308.041C211.877 307.466 211.788 306.897 211.692 306.329C211.651 306.062 211.61 305.801 211.562 305.541C211.527 305.336 211.5 305.13 211.459 304.925C211.336 304.185 211.219 303.452 211.096 302.726C210.979 302.034 210.863 301.356 210.747 300.685C210.664 300.199 210.575 299.719 210.493 299.24C210.425 298.863 210.356 298.486 210.288 298.11C210.199 297.61 210.11 297.123 210.021 296.637C209.986 296.445 209.952 296.26 209.918 296.075C209.705 294.959 209.5 293.884 209.288 292.842C209.253 292.671 209.219 292.5 209.185 292.329C209.185 292.322 209.185 292.315 209.185 292.301C209.11 291.911 209.027 291.527 208.945 291.151C208.884 290.863 208.822 290.575 208.76 290.295C208.658 289.822 208.555 289.356 208.452 288.911C206.356 279.658 203.74 270.062 198.096 262.596C199.719 260.76 201.336 258.925 202.959 257.089C210.404 248.651 217.87 240.24 225.795 232.301C230.788 242.26 237.705 251.356 247.062 257.288C249.418 258.781 251.904 260.062 254.486 261.103C270.829 267.719 290.089 264.356 305.123 255.144C309.993 252.158 314.541 248.562 318.212 244.178C325.007 236.089 328.527 225.651 329.925 215.178C330.911 207.747 330.897 200.247 330.603 192.747C333.171 194.897 337.226 198.356 339.692 200.678L339.685 200.685Z" fill="#1E1E1E"/>
<path d="M216.356 340.37C216.014 340.37 215.719 340.116 215.678 339.767L215.63 339.349C215.521 338.507 215.411 337.616 215.295 336.699L214.884 333.493C214.822 333.007 214.76 332.507 214.692 332.007L214.233 328.514C214.041 327.068 213.836 325.582 213.63 324.075L212.452 315.774C212.11 313.438 211.753 311.096 211.39 308.781L211.295 308.151C211.205 307.575 211.116 307.007 211.021 306.438C210.979 306.171 210.938 305.918 210.89 305.657C210.856 305.445 210.822 305.24 210.788 305.041C210.664 304.294 210.548 303.562 210.418 302.836C210.301 302.151 210.185 301.473 210.069 300.794C210.007 300.438 209.945 300.089 209.884 299.747L209.61 298.219C209.521 297.726 209.432 297.233 209.342 296.753L209.24 296.192C209.027 295.089 208.822 294.007 208.61 292.973C208.575 292.801 208.541 292.637 208.507 292.473L208.493 292.39C208.418 292.014 208.342 291.651 208.267 291.288C208.206 290.993 208.144 290.712 208.082 290.431C207.979 289.959 207.877 289.5 207.774 289.048C205.815 280.404 203.253 270.541 197.541 262.993L197.206 262.548L202.438 256.623C210.39 247.61 217.596 239.527 225.301 231.808L225.973 231.137L226.397 231.986C231.959 243.068 239.027 251.384 247.418 256.705C249.747 258.178 252.205 259.445 254.733 260.466C269.733 266.541 288.897 264.274 304.753 254.555C310.021 251.329 314.37 247.685 317.678 243.733C323.699 236.568 327.692 226.657 329.233 215.082C330.301 207.062 330.151 198.945 329.904 192.767L329.842 191.219L331.027 192.212C333.973 194.678 337.952 198.096 340.281 200.294C340.555 200.555 340.569 200.986 340.308 201.26C340.048 201.534 339.616 201.548 339.342 201.288C337.336 199.39 334.075 196.568 331.336 194.253C331.541 200.26 331.589 207.788 330.596 215.26C329 227.267 325.007 237.137 318.733 244.61C315.329 248.671 310.87 252.411 305.473 255.712C289.007 265.808 269.849 268.055 254.219 261.726C251.616 260.671 249.082 259.37 246.685 257.849C238.295 252.534 231.206 244.322 225.603 233.438C218.178 240.931 211.171 248.794 203.466 257.527L198.973 262.616C204.616 270.315 207.164 280.123 209.116 288.747C209.219 289.199 209.322 289.664 209.425 290.144C209.486 290.431 209.548 290.712 209.61 291.007C209.685 291.37 209.767 291.74 209.842 292.123L209.863 292.233C209.897 292.39 209.925 292.548 209.959 292.705C210.171 293.74 210.377 294.822 210.589 295.938L210.692 296.507C210.781 296.986 210.87 297.479 210.959 297.979L211.233 299.507C211.295 299.856 211.356 300.205 211.418 300.562C211.534 301.233 211.651 301.918 211.767 302.603C211.89 303.329 212.014 304.068 212.13 304.808C212.164 305.007 212.199 305.226 212.233 305.438C212.274 305.685 212.322 305.952 212.363 306.219C212.459 306.788 212.548 307.356 212.637 307.931L212.74 308.568C213.103 310.877 213.459 313.226 213.801 315.568L214.986 323.883C215.192 325.39 215.39 326.877 215.589 328.322L216.048 331.815C216.116 332.322 216.178 332.822 216.24 333.315L216.651 336.52C216.767 337.438 216.877 338.329 216.986 339.178L217.034 339.596C217.082 339.973 216.815 340.315 216.438 340.356C216.411 340.356 216.384 340.356 216.356 340.356V340.37Z" fill="#17000B"/>
<path d="M214.883 333.493L214.692 332L216.048 331.822C216.116 332.329 216.178 332.829 216.24 333.322L214.883 333.5V333.493Z" fill="#17000B"/>
<path d="M329.918 215.185C329.842 215.74 329.76 216.301 329.678 216.849C328.144 226.76 324.644 236.521 318.212 244.185C317.233 245.356 316.185 246.473 315.089 247.534C312.089 250.445 308.692 252.959 305.123 255.151C290.089 264.37 270.829 267.733 254.486 261.11C254.342 261.055 254.205 260.993 254.062 260.932C251.63 259.925 249.288 258.699 247.062 257.288C237.705 251.356 230.788 242.253 225.794 232.301C229.726 228.356 233.774 224.534 237.979 220.884C238.397 220.521 238.815 220.158 239.24 219.795C252.959 208.075 268.37 198.349 284.815 190.938C289.363 188.89 293.986 187.014 298.685 185.322C304.61 183.185 310.644 181.349 316.753 179.808C320.781 184.575 325.705 188.644 330.603 192.74C330.904 200.247 330.918 207.747 329.925 215.178L329.918 215.185Z" fill="#BFD3DE"/>
<path d="M272.966 265.281C266.438 265.281 260.082 264.116 254.226 261.74C254.082 261.685 253.931 261.623 253.781 261.555C251.349 260.548 248.959 259.301 246.692 257.863C238.089 252.411 230.849 243.911 225.178 232.603L224.959 232.164L225.308 231.815C229.562 227.555 233.555 223.808 237.527 220.363C237.945 220 238.37 219.63 238.794 219.274C252.52 207.548 267.911 197.808 284.534 190.315C289.068 188.274 293.746 186.377 298.452 184.678L298.568 184.637C304.479 182.514 310.541 180.664 316.589 179.144L317 179.041L317.274 179.37C321.103 183.904 325.863 187.89 330.466 191.74L331.281 192.425V192.747C331.527 198.959 331.678 207.151 330.603 215.274C330.527 215.836 330.445 216.397 330.356 216.959C328.609 228.212 324.705 237.521 318.733 244.623C317.767 245.774 316.699 246.918 315.562 248.021C312.733 250.767 309.336 253.363 305.479 255.726C295.192 262.034 283.849 265.281 272.972 265.281H272.966ZM226.623 232.432C232.151 243.295 239.144 251.459 247.425 256.706C249.63 258.103 251.945 259.308 254.322 260.295C254.466 260.356 254.596 260.411 254.733 260.466C269.74 266.541 288.904 264.281 304.76 254.562C308.534 252.247 311.849 249.712 314.609 247.034C315.719 245.966 316.753 244.856 317.685 243.74C323.493 236.829 327.294 227.747 329 216.74C329.089 216.192 329.164 215.637 329.24 215.089C330.288 207.192 330.164 199.206 329.918 193.069L329.582 192.788C325.041 188.993 320.356 185.069 316.5 180.575C310.596 182.075 304.678 183.884 298.911 185.966L298.794 186.007C294.164 187.678 289.555 189.548 285.089 191.562C268.589 199 253.308 208.678 239.678 220.315C239.26 220.671 238.842 221.034 238.425 221.397C234.589 224.726 230.726 228.343 226.623 232.432Z" fill="#17000B"/>
<path d="M289.226 218.87C288.048 222.205 285.253 224.801 282.075 226.356C279.164 227.781 275.404 228.336 272.877 226.308C273.671 231.24 271.589 236.582 267.527 239.486C263.466 242.39 257.582 242.575 253.466 239.747C252.171 238.856 251.205 237.274 251.089 235.712C250.123 236.767 248.514 236.884 247.082 236.808C245.281 236.712 243.425 236.397 241.945 235.356C240.411 234.267 239.486 232.514 238.863 230.74C237.76 227.596 237.473 224.171 237.973 220.877C238.39 220.514 238.808 220.151 239.233 219.788C252.952 208.069 268.363 198.342 284.808 190.932C284.842 190.952 284.87 190.973 284.897 190.993C286.322 192.048 287.219 193.651 287.979 195.253C289.055 197.514 289.959 199.911 290.089 202.418C290.219 204.918 288.815 207.356 287.027 209.11C289.699 211.432 290.404 215.527 289.226 218.863V218.87Z" fill="#745E25"/>
<path d="M260.226 242.445C257.671 242.445 255.144 241.74 253.068 240.315C251.904 239.514 251.014 238.254 250.61 236.925C249.466 237.534 248.082 237.548 247.034 237.493C245.514 237.411 243.294 237.158 241.541 235.918C240.11 234.904 239.02 233.288 238.205 230.973C237.075 227.76 236.76 224.233 237.281 220.781L237.322 220.534L237.514 220.37C237.931 220 238.356 219.637 238.781 219.274C252.507 207.548 267.897 197.808 284.52 190.315L284.883 190.151L285.205 190.39C285.26 190.425 285.288 190.445 285.315 190.473C286.849 191.603 287.794 193.308 288.582 194.973C289.514 196.932 290.61 199.555 290.76 202.39C290.877 204.63 289.877 207.041 287.986 209.103C290.336 211.569 291.11 215.569 289.863 219.103C288.726 222.329 285.993 225.199 282.37 226.98C279.849 228.212 276.425 228.918 273.699 227.637C273.973 232.459 271.753 237.315 267.918 240.055C265.685 241.651 262.945 242.452 260.226 242.452V242.445ZM251.644 234.075L251.76 235.664C251.856 236.98 252.692 238.397 253.842 239.192C257.657 241.815 263.247 241.706 267.116 238.938C270.918 236.226 272.959 231.192 272.192 226.425L271.911 224.671L273.294 225.781C275.651 227.664 279.212 226.993 281.767 225.747C285.068 224.123 287.555 221.541 288.575 218.644C289.726 215.377 288.904 211.671 286.568 209.637L286.014 209.151L286.541 208.63C288.466 206.747 289.507 204.493 289.397 202.459C289.26 199.863 288.233 197.404 287.349 195.555C286.678 194.137 285.89 192.706 284.705 191.733C268.342 199.151 253.192 208.767 239.664 220.315C239.308 220.617 238.952 220.925 238.603 221.233C238.164 224.39 238.473 227.596 239.5 230.521C240.219 232.555 241.144 233.959 242.329 234.801C243.459 235.596 244.931 236.007 247.103 236.13C248.836 236.226 249.938 235.945 250.562 235.254L251.637 234.075H251.644Z" fill="#17000B"/>
<path d="M329.918 215.185C329.842 215.74 329.76 216.301 329.678 216.849C328.37 216.938 327.041 216.692 325.87 216.11C323.527 214.952 321.863 212.342 321.705 209.733C320.623 211.37 318.61 212.219 316.651 212.315C314.692 212.404 312.76 211.836 310.925 211.137C309.74 210.692 308.568 210.178 307.548 209.425C304.438 207.103 303.39 202.808 303.726 198.938C301.13 199.329 298.5 197.603 297.39 195.219C296.274 192.842 296.5 189.993 297.493 187.569C297.815 186.781 298.212 186.034 298.678 185.322C304.603 183.185 310.637 181.349 316.747 179.808C320.774 184.575 325.699 188.644 330.596 192.74C330.897 200.247 330.911 207.747 329.918 215.178V215.185Z" fill="#745E25"/>
<path d="M329.151 217.555C327.891 217.555 326.658 217.274 325.562 216.733C323.466 215.699 321.849 213.61 321.254 211.274C320.082 212.295 318.459 212.918 316.678 213.007C314.493 213.11 312.418 212.445 310.678 211.788C309.555 211.363 308.254 210.815 307.137 209.979C304.329 207.884 302.808 204.075 302.993 199.685H302.986C300.466 199.685 297.945 198.034 296.767 195.521C295.658 193.158 295.692 190.171 296.856 187.315C297.192 186.493 297.61 185.699 298.103 184.952L298.308 184.644H298.562C304.473 182.521 310.534 180.671 316.582 179.151L316.993 179.048L317.267 179.377C321.096 183.911 325.856 187.897 330.459 191.747L331.274 192.432V192.753C331.521 198.966 331.671 207.158 330.596 215.281C330.521 215.842 330.438 216.404 330.349 216.966L330.267 217.507L329.719 217.541C329.528 217.555 329.343 217.562 329.151 217.562V217.555ZM322.254 207.644L322.377 209.692C322.521 212.082 324.082 214.473 326.158 215.5C327.048 215.938 328.048 216.171 329.075 216.185C329.13 215.822 329.178 215.459 329.226 215.096C330.274 207.199 330.151 199.212 329.904 193.075L329.569 192.795C325.028 189 320.343 185.075 316.486 180.582C310.651 182.062 304.808 183.849 299.11 185.89C298.719 186.507 298.384 187.158 298.11 187.829C297.089 190.329 297.048 192.918 297.993 194.932C299.034 197.158 301.445 198.589 303.61 198.26L304.473 198.13L304.397 199C304.028 203.247 305.356 206.945 307.945 208.877C308.925 209.61 310.062 210.089 311.151 210.5C312.76 211.11 314.664 211.719 316.603 211.63C318.548 211.541 320.24 210.685 321.117 209.356L322.247 207.644H322.254Z" fill="#17000B"/>
<path d="M315.082 247.528C312.082 250.438 308.685 252.952 305.117 255.144C290.082 264.363 270.822 267.726 254.48 261.103C254.336 261.048 254.199 260.986 254.055 260.925C254.137 258.349 255.164 255.802 257.075 254.069C260.623 250.843 266.678 250.911 270.158 254.212C270.397 252.767 270.48 251.288 270.849 249.863C271.973 245.589 275.945 242.212 280.349 241.802C284.753 241.391 289.281 243.973 291.171 247.973C293.822 243.151 299.712 240.651 305.164 241.356C308.322 241.767 311.349 243.233 313.534 245.534C314.11 246.144 314.623 246.808 315.075 247.514L315.082 247.528Z" fill="#745E25"/>
<path d="M272.966 265.281C266.438 265.281 260.082 264.116 254.226 261.74C254.082 261.685 253.932 261.623 253.781 261.555L253.356 261.37L253.37 260.904C253.459 258.027 254.644 255.349 256.616 253.562C260.137 250.356 265.836 250.157 269.658 252.911C269.671 252.801 269.685 252.692 269.699 252.575C269.815 251.63 269.938 250.651 270.192 249.692C271.377 245.164 275.63 241.562 280.295 241.123C284.555 240.726 288.959 242.993 291.219 246.616C294.144 242.377 299.733 239.966 305.26 240.678C308.658 241.116 311.774 242.678 314.041 245.068C314.637 245.699 315.185 246.404 315.664 247.157L315.959 247.63L315.562 248.014C312.733 250.76 309.336 253.356 305.473 255.726C295.185 262.034 283.843 265.281 272.966 265.281ZM254.767 260.479C269.767 266.541 288.918 264.274 304.76 254.555C308.349 252.356 311.521 249.952 314.199 247.425C313.849 246.918 313.466 246.445 313.048 246.014C310.993 243.849 308.164 242.438 305.082 242.041C299.664 241.336 294.199 243.911 291.781 248.308L291.137 249.479L290.562 248.267C288.795 244.534 284.527 242.103 280.418 242.486C276.308 242.87 272.562 246.048 271.514 250.034C271.288 250.904 271.171 251.801 271.055 252.74C270.986 253.267 270.925 253.794 270.836 254.322L270.623 255.596L269.685 254.705C266.479 251.657 260.801 251.596 257.534 254.568C255.938 256.014 254.945 258.144 254.76 260.473L254.767 260.479Z" fill="#17000B"/>
<path d="M311.986 340.377H87.9657C78.7534 340.377 70.1233 335.904 64.8014 328.39H64.4726V327.918C64.2534 327.596 64.0411 327.274 63.8356 326.938C61.0548 322.459 59.589 317.294 59.589 312V87.9726C59.5822 72.3219 72.315 59.589 87.9657 59.589H311.986C327.637 59.589 340.37 72.3219 340.37 87.9726V311.993C340.37 327.644 327.637 340.377 311.986 340.377ZM65.6027 327.144L65.7192 327.308C70.7671 334.63 79.0822 339 87.9657 339H311.986C326.877 339 339 326.884 339 311.986V87.9726C339 73.0821 326.884 60.9589 311.986 60.9589H87.9657C73.0685 60.9589 60.952 73.0753 60.952 87.9726V311.993C60.952 317.034 62.3493 321.952 64.9931 326.212C65.1918 326.527 65.3904 326.842 65.6027 327.144Z" fill="#17000B"/>
<path d="M170.206 246.849C170.952 250.952 171.438 255.308 169.014 258.699C168.048 260.048 166.685 261.048 165.349 262.02C157.678 267.623 150 273.226 142.329 278.829C140.979 279.815 139.527 280.842 137.856 280.966C135.801 281.116 133.925 279.877 132.308 278.603C126.185 273.767 122.301 266.425 116.808 259.336C108.123 248.123 87.2192 220.466 86.4178 217.438C85.185 212.781 85.3219 211.007 86.5274 206.342L170.206 246.849Z" fill="#DBD1C1"/>
<path d="M137.514 281.664C135.384 281.664 133.479 280.397 131.884 279.144C127.575 275.74 124.377 271.151 120.993 266.294C119.5 264.151 117.952 261.938 116.267 259.76C110.055 251.74 86.6712 221.089 85.7534 217.623C84.4794 212.822 84.6233 210.972 85.863 206.178L86.0753 205.37L170.822 246.39L170.884 246.733C171.623 250.801 172.199 255.445 169.575 259.103C168.534 260.555 167.062 261.63 165.76 262.582L142.74 279.39C141.445 280.336 139.829 281.514 137.918 281.657C137.788 281.664 137.651 281.671 137.521 281.671L137.514 281.664ZM86.9863 207.322C86.0137 211.233 85.9384 212.952 87.0822 217.26C87.8014 219.986 107.479 246.164 117.356 258.911C119.062 261.116 120.616 263.342 122.123 265.5C125.445 270.274 128.589 274.781 132.74 278.055C134.226 279.226 136 280.404 137.815 280.274C139.226 280.171 140.466 279.342 141.931 278.267L164.952 261.459C166.233 260.527 167.555 259.562 168.466 258.288C170.705 255.157 170.26 251.007 169.603 247.301L86.9932 207.315L86.9863 207.322Z" fill="#17000B"/>
<path d="M167.986 252.014L142.082 272.021C139.554 273.973 135.917 273.507 133.958 270.98L87.6295 210.98C85.6774 208.452 86.1432 204.815 88.6706 202.856L119.342 179.164C122.013 177.096 125.883 177.753 127.732 180.582L169.294 244.26C170.945 246.788 170.376 250.164 167.986 252.007V252.014Z" fill="#FDF5DC"/>
<path d="M138.555 273.911C136.616 273.911 134.699 273.048 133.424 271.397L87.0822 211.404C86.0274 210.034 85.5616 208.336 85.7877 206.623C86.0137 204.911 86.8836 203.384 88.2534 202.322L118.925 178.63C120.349 177.527 122.184 177.068 123.958 177.37C125.732 177.671 127.315 178.705 128.301 180.212L169.862 243.89C171.698 246.699 171.054 250.5 168.397 252.555L142.493 272.562C141.315 273.473 139.924 273.911 138.541 273.911H138.555ZM122.87 178.651C121.753 178.651 120.678 179.021 119.767 179.719L89.0959 203.411C88.0137 204.247 87.3288 205.445 87.1507 206.801C86.9794 208.151 87.3424 209.493 88.1712 210.568L134.507 270.562C136.226 272.788 139.438 273.199 141.664 271.479L167.568 251.473C169.658 249.856 170.164 246.856 168.726 244.644L127.164 180.966C126.376 179.76 125.164 178.966 123.74 178.726C123.452 178.678 123.158 178.651 122.87 178.651Z" fill="#17000B"/>
<path d="M136.158 224.034C135.946 224.699 135.035 224.788 134.699 224.171C133.96 222.829 132.775 220.781 131.377 218.753L115.295 231.171C114.014 232.158 112.179 231.925 111.192 230.644L103.747 221C102.761 219.719 102.994 217.884 104.275 216.897L123.562 201.993C124.843 201.007 126.679 201.24 127.665 202.521L135.405 212.541C135.405 212.541 135.432 212.575 135.446 212.596C135.946 213.26 136.316 213.973 136.576 214.726C137.734 218.007 136.857 221.856 136.158 224.027V224.034Z" fill="#E75837"/>
<path d="M113.514 232.466C112.432 232.466 111.364 231.986 110.651 231.062L103.206 221.418C101.987 219.842 102.282 217.575 103.857 216.356L123.145 201.452C123.905 200.863 124.857 200.61 125.809 200.726C126.768 200.849 127.617 201.336 128.206 202.096L135.946 212.116C135.946 212.116 135.994 212.178 136.014 212.212C136.514 212.87 136.925 213.651 137.22 214.493C138.46 218.007 137.494 222.096 136.809 224.226C136.624 224.794 136.124 225.192 135.535 225.247C134.939 225.301 134.384 225.014 134.097 224.486C133.425 223.274 132.412 221.507 131.213 219.726L115.706 231.699C115.049 232.205 114.275 232.452 113.508 232.452L113.514 232.466ZM125.35 202.075C124.857 202.075 124.384 202.24 123.987 202.541L104.699 217.445C103.72 218.199 103.542 219.61 104.295 220.582L111.74 230.226C112.494 231.205 113.905 231.384 114.877 230.63L131.535 217.767L131.946 218.363C133.35 220.39 134.549 222.459 135.309 223.842C135.323 223.863 135.35 223.911 135.419 223.904C135.494 223.897 135.514 223.842 135.514 223.822C136.151 221.856 137.049 218.096 135.939 214.959C135.692 214.247 135.343 213.589 134.905 213.014L127.124 202.938C126.761 202.466 126.234 202.164 125.638 202.089C125.542 202.075 125.446 202.068 125.35 202.068V202.075Z" fill="#17000B"/>
<path d="M145.739 254.719C146.335 254.699 146.623 253.973 146.191 253.548C145.253 252.623 143.842 251.178 142.492 249.548L156.458 239.164C157.568 238.343 157.801 236.767 156.972 235.658L150.746 227.281C149.924 226.171 148.349 225.938 147.239 226.767L130.479 239.226C129.369 240.048 129.136 241.623 129.965 242.733L136.438 251.438C136.438 251.438 136.458 251.473 136.472 251.486C136.903 252.055 137.41 252.521 137.965 252.911C140.403 254.63 143.78 254.795 145.732 254.719H145.739Z" fill="#94ABD6"/>
<path d="M145.02 255.418C142.999 255.418 139.903 255.103 137.582 253.473C136.945 253.027 136.39 252.5 135.938 251.904L129.424 243.144C128.376 241.733 128.671 239.733 130.082 238.678L146.842 226.219C148.253 225.171 150.253 225.466 151.301 226.877L157.527 235.253C158.034 235.938 158.246 236.781 158.123 237.623C157.999 238.466 157.554 239.212 156.869 239.719L143.486 249.671C144.657 251.034 145.842 252.247 146.671 253.062C147.068 253.445 147.191 254.007 146.986 254.527C146.787 255.041 146.308 255.384 145.76 255.404C145.534 255.411 145.28 255.418 145.013 255.418H145.02ZM148.739 226.959C148.362 226.959 147.979 227.075 147.657 227.315L130.897 239.774C130.088 240.37 129.924 241.514 130.52 242.322L136.992 251.027C137.397 251.555 137.842 251.986 138.362 252.349C140.671 253.973 143.958 254.103 145.712 254.034C144.739 253.089 143.308 251.616 141.958 249.986L141.499 249.431L156.047 238.616C156.856 238.02 157.02 236.877 156.424 236.068L150.198 227.692C149.842 227.212 149.294 226.959 148.732 226.959H148.739Z" fill="#17000B"/>
<path d="M104.849 199.795C104.904 201.596 105.863 203.349 107.349 204.37C107.692 204.603 108.055 204.801 108.452 204.918C109.418 205.199 110.466 204.952 111.356 204.5C113.562 203.39 115.048 200.849 114.658 198.411C113.616 191.89 104.637 193.377 104.842 199.795H104.849Z" fill="#FFD95F"/>
<path d="M109.322 205.726C108.979 205.726 108.623 205.685 108.267 205.582C107.836 205.459 107.411 205.247 106.966 204.945C105.301 203.801 104.233 201.842 104.164 199.829C104.041 196.048 106.767 193.808 109.514 193.548C111.993 193.308 114.76 194.692 115.336 198.315C115.76 200.973 114.219 203.836 111.664 205.123C111.062 205.425 110.226 205.733 109.315 205.733L109.322 205.726ZM105.534 199.781C105.582 201.37 106.431 202.911 107.74 203.815C108.062 204.034 108.356 204.185 108.644 204.267C109.329 204.466 110.185 204.336 111.055 203.897C113.055 202.89 114.315 200.582 113.986 198.527C113.521 195.589 111.356 194.74 109.644 194.904C107.527 195.103 105.438 196.842 105.534 199.781Z" fill="#17000B"/>
<path d="M109.186 220.466C108.973 220.466 108.768 220.37 108.638 220.192C108.412 219.89 108.473 219.459 108.775 219.233L125.179 207C125.48 206.774 125.912 206.836 126.138 207.137C126.364 207.438 126.302 207.87 126.001 208.096L109.597 220.329C109.473 220.418 109.329 220.466 109.186 220.466Z" fill="#17000B"/>
<path d="M113.966 225.788C113.767 225.788 113.568 225.699 113.432 225.534C113.192 225.24 113.24 224.808 113.534 224.568L122.137 217.616C122.432 217.377 122.863 217.425 123.103 217.719C123.342 218.014 123.295 218.445 123 218.685L114.397 225.637C114.267 225.74 114.116 225.788 113.966 225.788Z" fill="#17000B"/>
<path d="M136.5 240.883C136.274 240.883 136.048 240.767 135.918 240.562C135.719 240.24 135.815 239.822 136.137 239.616L147.938 232.226C148.26 232.027 148.678 232.123 148.884 232.445C149.082 232.767 148.986 233.185 148.664 233.39L136.863 240.781C136.747 240.849 136.623 240.883 136.5 240.883Z" fill="#17000B"/>
<path d="M138.425 245.843C138.206 245.843 137.993 245.74 137.856 245.541C137.644 245.226 137.726 244.801 138.034 244.589L146.596 238.76C146.911 238.548 147.336 238.63 147.548 238.938C147.76 239.253 147.678 239.678 147.37 239.89L138.808 245.719C138.692 245.801 138.555 245.836 138.425 245.836V245.843Z" fill="#17000B"/>
<path d="M106.651 262.733C107.186 258.301 108.021 253.904 109.138 249.582C110.172 245.582 112.049 241.061 116.055 240.041C118.823 239.335 121.809 240.685 123.727 242.801C125.644 244.918 126.672 247.685 127.446 250.438C131.192 263.801 129.829 277.986 128.446 291.794" fill="#60301B"/>
<path d="M128.446 292.48C128.446 292.48 128.398 292.48 128.377 292.48C128.001 292.438 127.727 292.103 127.761 291.726C129.062 278.747 130.542 264.041 126.788 250.623C126.103 248.171 125.138 245.377 123.22 243.26C121.282 241.123 118.535 240.117 116.22 240.706C113.282 241.452 111.186 244.411 109.802 249.754C108.692 254.027 107.864 258.425 107.329 262.815C107.282 263.192 106.939 263.459 106.569 263.411C106.192 263.363 105.925 263.027 105.973 262.651C106.514 258.199 107.357 253.747 108.48 249.411C110.001 243.541 112.425 240.26 115.891 239.384C118.686 238.678 121.966 239.836 124.24 242.349C126.35 244.671 127.377 247.651 128.11 250.26C131.939 263.925 130.446 278.767 129.131 291.87C129.097 292.226 128.795 292.486 128.453 292.486L128.446 292.48Z" fill="#60301B"/>
<path d="M394.252 189.367V214.303C394.252 215.171 393.594 215.874 392.783 215.874C391.971 215.874 391.313 215.171 391.313 214.303V193.864C390.667 194.794 390.022 195.724 389.376 196.654V213.041C389.376 213.945 388.718 214.678 387.907 214.678C387.095 214.678 386.437 213.945 386.437 213.041V191.733C385.791 192.704 385.145 193.675 384.499 194.646V211.629C384.499 212.572 383.84 213.336 383.028 213.336C382.217 213.336 381.559 212.572 381.559 211.629V189.413C378.997 193.423 376.434 197.433 373.872 201.443C373.29 202.353 372.708 203.264 372.125 204.175C371.543 203.264 370.96 202.353 370.379 201.443C367.817 197.433 365.255 193.424 362.693 189.415V211.632C362.693 212.574 362.035 213.339 361.224 213.339C360.412 213.339 359.754 212.574 359.754 211.632V194.648C359.108 193.676 358.461 192.706 357.815 191.735V213.041C357.815 213.945 357.157 214.678 356.345 214.678C355.534 214.678 354.876 213.945 354.876 213.041V196.656C354.23 195.726 353.585 194.796 352.939 193.866V214.303C352.939 215.171 352.281 215.874 351.469 215.874C350.658 215.874 350 215.171 350 214.303V189.369C350 188.849 350.237 188.389 350.601 188.103C350.617 188.09 350.633 188.078 350.647 188.067C350.662 188.058 350.676 188.048 350.69 188.039C350.815 187.957 351.233 187.729 351.818 187.931C352.304 188.1 352.634 188.468 352.779 188.656C352.807 188.692 352.827 188.722 352.841 188.741C353.454 189.611 354.139 190.588 354.876 191.641V187.045C354.876 186.51 355.106 186.035 355.462 185.737C355.465 185.733 355.47 185.73 355.474 185.727C355.49 185.714 355.507 185.7 355.524 185.687C355.525 185.687 355.526 185.686 355.527 185.685C355.534 185.679 355.542 185.674 355.549 185.668C355.55 185.667 355.552 185.667 355.553 185.666C355.557 185.663 355.56 185.66 355.564 185.658C355.565 185.658 355.566 185.657 355.566 185.657C355.57 185.654 355.575 185.651 355.579 185.648C355.585 185.645 355.59 185.641 355.595 185.639C355.595 185.638 355.596 185.638 355.596 185.637C355.615 185.629 355.817 185.514 356.048 185.474C356.063 185.472 356.078 185.47 356.094 185.468C356.106 185.467 356.118 185.465 356.13 185.465C356.143 185.464 356.155 185.463 356.168 185.463C356.214 185.46 356.262 185.462 356.312 185.464C356.328 185.465 356.344 185.467 356.36 185.468C356.374 185.47 356.388 185.472 356.402 185.474C356.429 185.478 356.457 185.482 356.486 185.488C356.662 185.526 356.793 185.594 356.88 185.64C357.079 185.745 357.209 185.861 357.341 185.979C357.478 186.102 357.585 186.219 357.658 186.306C357.685 186.343 357.707 186.374 357.721 186.395C358.333 187.303 359.017 188.321 359.754 189.418V184.531C359.754 183.974 359.983 183.481 360.339 183.169C360.35 183.158 360.362 183.148 360.373 183.139C360.394 183.122 360.414 183.105 360.436 183.09C360.441 183.086 360.446 183.082 360.452 183.079C360.458 183.076 360.463 183.071 360.469 183.068C360.47 183.067 360.472 183.066 360.474 183.064C360.478 183.061 360.483 183.059 360.487 183.056C360.502 183.046 360.52 183.035 360.539 183.025C360.54 183.025 360.541 183.024 360.542 183.023C360.549 183.019 360.558 183.014 360.568 183.009C360.57 183.008 360.572 183.007 360.575 183.006C360.583 183.002 360.591 182.998 360.6 182.994C360.616 182.986 360.633 182.979 360.651 182.971C360.682 182.957 360.716 182.945 360.753 182.933C360.764 182.93 360.776 182.926 360.788 182.923C360.79 182.921 360.793 182.921 360.796 182.92C360.809 182.916 360.825 182.913 360.84 182.909C360.859 182.904 360.878 182.901 360.899 182.897C360.912 182.894 360.927 182.892 360.942 182.89C360.955 182.888 360.967 182.887 360.98 182.886C360.987 182.884 360.994 182.884 361 182.883C361.017 182.881 361.033 182.881 361.05 182.88C361.068 182.879 361.087 182.878 361.107 182.878C361.245 182.878 361.401 182.902 361.57 182.965C362.06 183.148 362.39 183.553 362.532 183.754C362.532 183.754 362.533 183.755 362.533 183.755C362.558 183.789 362.576 183.818 362.59 183.838C365.062 187.656 368.736 193.378 372.125 198.698C375.515 193.377 379.19 187.654 381.663 183.836C381.676 183.816 381.695 183.788 381.719 183.752L381.72 183.752C381.862 183.551 382.192 183.145 382.682 182.963C382.852 182.9 383.007 182.877 383.145 182.877C383.165 182.877 383.184 182.877 383.202 182.878C383.219 182.878 383.235 182.879 383.251 182.881C383.259 182.881 383.265 182.882 383.272 182.883C383.285 182.884 383.298 182.887 383.311 182.888C383.325 182.89 383.34 182.892 383.354 182.896C383.374 182.898 383.394 182.903 383.413 182.907C383.427 182.911 383.442 182.914 383.456 182.919C383.459 182.919 383.462 182.92 383.464 182.92C383.476 182.924 383.488 182.927 383.5 182.93C383.536 182.943 383.57 182.956 383.602 182.968C383.62 182.976 383.636 182.984 383.653 182.991C383.661 182.995 383.669 182.999 383.677 183.004C383.68 183.005 383.682 183.006 383.684 183.008C383.694 183.012 383.702 183.017 383.71 183.021C383.711 183.022 383.713 183.022 383.713 183.023C383.733 183.033 383.75 183.044 383.765 183.053C383.77 183.056 383.774 183.059 383.778 183.062C383.78 183.063 383.782 183.064 383.784 183.066L383.8 183.077C383.806 183.08 383.811 183.083 383.816 183.087C383.838 183.103 383.859 183.119 383.88 183.137C383.89 183.146 383.901 183.157 383.914 183.167C384.268 183.478 384.499 183.973 384.499 184.529V189.416C385.235 188.319 385.919 187.3 386.531 186.393C386.545 186.372 386.567 186.341 386.595 186.304C386.668 186.217 386.774 186.1 386.912 185.977C387.043 185.859 387.173 185.742 387.372 185.637C387.459 185.592 387.59 185.524 387.766 185.486C387.795 185.48 387.823 185.474 387.851 185.472C387.864 185.469 387.878 185.467 387.893 185.466C387.909 185.464 387.924 185.464 387.939 185.462C387.99 185.458 388.038 185.458 388.085 185.46C388.097 185.46 388.11 185.462 388.122 185.463C388.134 185.464 388.146 185.464 388.159 185.465C388.174 185.467 388.189 185.469 388.204 185.472C388.437 185.511 388.638 185.628 388.656 185.636C388.657 185.636 388.657 185.636 388.657 185.636C388.663 185.64 388.668 185.643 388.673 185.645C388.677 185.649 388.682 185.652 388.686 185.655C388.687 185.655 388.687 185.655 388.688 185.656C388.691 185.658 388.695 185.66 388.699 185.663C388.7 185.664 388.701 185.665 388.703 185.666C388.71 185.672 388.718 185.677 388.725 185.682C388.726 185.683 388.727 185.684 388.728 185.685C388.745 185.697 388.762 185.711 388.779 185.724C388.783 185.728 388.787 185.731 388.791 185.735C389.146 186.033 389.376 186.507 389.376 187.042V191.639C390.112 190.587 390.799 189.609 391.411 188.739C391.425 188.719 391.446 188.69 391.473 188.654C391.619 188.467 391.948 188.097 392.434 187.929C393.02 187.727 393.437 187.955 393.563 188.036C393.577 188.045 393.591 188.055 393.605 188.066C393.619 188.076 393.635 188.088 393.651 188.101C394.015 188.387 394.252 188.847 394.252 189.367Z" fill="#FFE5D9"/>
<path d="M372.045 212.245L353.384 216.374C352.941 216.473 353.012 217.123 353.465 217.123H390.787C391.241 217.123 391.311 216.473 390.869 216.374L372.208 212.245C372.154 212.233 372.098 212.233 372.045 212.245Z" fill="#FFE5D9"/>
<path d="M222.252 359.491V384.427C222.252 385.294 221.594 385.997 220.783 385.997C219.971 385.997 219.313 385.294 219.313 384.427V363.988C218.667 364.917 218.022 365.847 217.376 366.778V383.164C217.376 384.069 216.718 384.801 215.907 384.801C215.095 384.801 214.437 384.069 214.437 383.164V361.857C213.791 362.828 213.145 363.798 212.499 364.769V381.753C212.499 382.696 211.84 383.46 211.028 383.46C210.217 383.46 209.559 382.696 209.559 381.753V359.537C206.997 363.547 204.434 367.557 201.872 371.566C201.29 372.477 200.708 373.388 200.125 374.298C199.543 373.388 198.96 372.477 198.379 371.566C195.817 367.557 193.255 363.547 190.693 359.539V381.756C190.693 382.698 190.035 383.462 189.224 383.462C188.412 383.462 187.754 382.698 187.754 381.756V364.771C187.108 363.8 186.461 362.829 185.815 361.858V383.164C185.815 384.069 185.157 384.801 184.345 384.801C183.534 384.801 182.876 384.069 182.876 383.164V366.779C182.23 365.85 181.585 364.919 180.939 363.989V384.427C180.939 385.294 180.281 385.997 179.469 385.997C178.658 385.997 178 385.294 178 384.427V359.492C178 358.972 178.237 358.512 178.601 358.227C178.617 358.214 178.633 358.201 178.647 358.19C178.662 358.181 178.676 358.172 178.69 358.162C178.815 358.081 179.233 357.853 179.818 358.054C180.304 358.223 180.634 358.592 180.779 358.78C180.807 358.815 180.827 358.845 180.841 358.864C181.454 359.734 182.139 360.712 182.876 361.765V357.168C182.876 356.633 183.106 356.159 183.462 355.861C183.465 355.856 183.47 355.853 183.474 355.851C183.49 355.837 183.507 355.823 183.524 355.811C183.525 355.81 183.526 355.809 183.527 355.808C183.534 355.802 183.542 355.797 183.549 355.792C183.55 355.791 183.552 355.79 183.553 355.789C183.557 355.786 183.56 355.783 183.564 355.782C183.565 355.781 183.566 355.781 183.566 355.781C183.57 355.778 183.575 355.774 183.579 355.772C183.585 355.768 183.59 355.765 183.595 355.762C183.595 355.761 183.596 355.761 183.596 355.76C183.615 355.753 183.817 355.637 184.048 355.598C184.063 355.595 184.078 355.593 184.094 355.592C184.106 355.59 184.118 355.589 184.13 355.588C184.143 355.587 184.155 355.587 184.168 355.586C184.214 355.584 184.262 355.585 184.312 355.588C184.328 355.589 184.344 355.59 184.36 355.592C184.374 355.593 184.388 355.595 184.402 355.597C184.429 355.601 184.457 355.605 184.486 355.612C184.662 355.649 184.793 355.717 184.88 355.763C185.079 355.869 185.209 355.984 185.341 356.102C185.478 356.225 185.585 356.343 185.658 356.429C185.685 356.466 185.707 356.497 185.721 356.519C186.333 357.426 187.017 358.444 187.754 359.541V354.654C187.754 354.098 187.983 353.605 188.339 353.293C188.35 353.282 188.362 353.272 188.373 353.262C188.394 353.245 188.414 353.229 188.436 353.213C188.441 353.209 188.446 353.206 188.452 353.202C188.458 353.199 188.463 353.194 188.469 353.191C188.47 353.19 188.472 353.189 188.474 353.187C188.478 353.184 188.483 353.183 188.487 353.179C188.502 353.169 188.52 353.159 188.539 353.148C188.54 353.148 188.541 353.147 188.542 353.147C188.549 353.142 188.558 353.138 188.568 353.133C188.57 353.131 188.572 353.131 188.575 353.129C188.583 353.125 188.591 353.121 188.6 353.117C188.616 353.109 188.633 353.102 188.651 353.094C188.682 353.081 188.716 353.068 188.753 353.056C188.764 353.053 188.776 353.049 188.788 353.046C188.79 353.045 188.793 353.044 188.796 353.044C188.809 353.04 188.825 353.036 188.84 353.033C188.859 353.027 188.878 353.024 188.899 353.021C188.912 353.017 188.927 353.016 188.942 353.013C188.955 353.011 188.967 353.011 188.98 353.009C188.987 353.008 188.994 353.007 189 353.007C189.017 353.004 189.033 353.004 189.05 353.003C189.068 353.002 189.087 353.002 189.107 353.002C189.245 353.002 189.401 353.026 189.57 353.089C190.06 353.271 190.39 353.676 190.532 353.877C190.532 353.878 190.533 353.879 190.533 353.879C190.558 353.913 190.576 353.941 190.59 353.962C193.062 357.779 196.736 363.501 200.125 368.821C203.515 363.501 207.19 357.778 209.663 353.96C209.676 353.94 209.695 353.911 209.719 353.876L209.72 353.875C209.862 353.674 210.192 353.268 210.682 353.087C210.852 353.024 211.007 353 211.145 353C211.165 353 211.184 353.001 211.202 353.001C211.219 353.002 211.235 353.003 211.251 353.004C211.259 353.004 211.265 353.006 211.272 353.007C211.285 353.008 211.298 353.01 211.311 353.011C211.325 353.013 211.34 353.016 211.354 353.019C211.374 353.022 211.394 353.026 211.413 353.03C211.427 353.034 211.442 353.038 211.456 353.042C211.459 353.043 211.462 353.043 211.464 353.044C211.476 353.047 211.488 353.05 211.5 353.054C211.536 353.066 211.57 353.079 211.602 353.092C211.62 353.1 211.636 353.107 211.653 353.115C211.661 353.119 211.669 353.123 211.677 353.127C211.68 353.128 211.682 353.129 211.684 353.131C211.694 353.136 211.702 353.14 211.71 353.145C211.711 353.145 211.713 353.146 211.713 353.146C211.733 353.157 211.75 353.167 211.765 353.177C211.77 353.18 211.774 353.183 211.778 353.185C211.78 353.187 211.782 353.188 211.784 353.189L211.8 353.2C211.806 353.203 211.811 353.207 211.816 353.211C211.838 353.226 211.859 353.243 211.88 353.261C211.89 353.27 211.901 353.28 211.914 353.291C212.268 353.602 212.499 354.096 212.499 354.652V359.539C213.235 358.442 213.919 357.424 214.531 356.517C214.545 356.495 214.567 356.465 214.595 356.427C214.669 356.34 214.774 356.224 214.912 356.1C215.043 355.983 215.173 355.866 215.372 355.76C215.459 355.716 215.59 355.647 215.766 355.61C215.795 355.603 215.823 355.598 215.851 355.595C215.864 355.593 215.878 355.591 215.893 355.589C215.909 355.588 215.924 355.587 215.939 355.586C215.99 355.582 216.038 355.582 216.085 355.583C216.097 355.584 216.11 355.585 216.122 355.587C216.134 355.587 216.146 355.588 216.159 355.589C216.174 355.591 216.189 355.593 216.204 355.596C216.437 355.635 216.638 355.751 216.656 355.759C216.657 355.759 216.657 355.759 216.657 355.76C216.663 355.763 216.668 355.767 216.673 355.769C216.677 355.772 216.682 355.775 216.686 355.778C216.687 355.778 216.687 355.779 216.688 355.779C216.691 355.781 216.695 355.784 216.699 355.787C216.7 355.788 216.701 355.788 216.703 355.789C216.71 355.795 216.718 355.8 216.725 355.806C216.726 355.806 216.727 355.807 216.728 355.808C216.745 355.821 216.762 355.835 216.779 355.848C216.783 355.851 216.787 355.854 216.791 355.858C217.146 356.156 217.376 356.631 217.376 357.165V361.762C218.112 360.71 218.799 359.733 219.411 358.862C219.425 358.842 219.446 358.813 219.473 358.778C219.619 358.591 219.948 358.221 220.434 358.053C221.02 357.851 221.437 358.079 221.563 358.159C221.577 358.169 221.591 358.178 221.605 358.189C221.619 358.199 221.635 358.211 221.651 358.225C222.015 358.51 222.252 358.971 222.252 359.491Z" fill="#FFE5D9"/>
<path d="M200.045 382.368L181.384 386.498C180.941 386.596 181.012 387.247 181.465 387.247H218.787C219.241 387.247 219.311 386.596 218.869 386.498L200.208 382.368C200.154 382.356 200.098 382.356 200.045 382.368Z" fill="#FFE5D9"/>
<path d="M51.2525 189.491V214.427C51.2525 215.294 50.594 215.997 49.7826 215.997C48.9712 215.997 48.3128 215.294 48.3128 214.427V193.988C47.6673 194.917 47.0223 195.847 46.3762 196.778V213.164C46.3762 214.069 45.7183 214.801 44.9069 214.801C44.0949 214.801 43.4371 214.069 43.4371 213.164V191.857C42.791 192.828 42.1449 193.798 41.4988 194.769V211.753C41.4988 212.696 40.8403 213.46 40.0284 213.46C39.217 213.46 38.5591 212.696 38.5591 211.753V189.537C35.9971 193.547 33.434 197.557 30.872 201.566C30.2898 202.477 29.7082 203.388 29.1254 204.298C28.5432 203.388 27.9604 202.477 27.3787 201.566C24.8168 197.557 22.2548 193.547 19.6934 189.539V211.756C19.6934 212.698 19.0349 213.462 18.2235 213.462C17.4116 213.462 16.7537 212.698 16.7537 211.756V194.771C16.1076 193.8 15.4615 192.829 14.8154 191.858V213.164C14.8154 214.069 14.157 214.801 13.345 214.801C12.5336 214.801 11.8763 214.069 11.8763 213.164V196.779C11.2302 195.85 10.5852 194.919 9.93911 193.989V214.427C9.93911 215.294 9.28124 215.997 8.46927 215.997C7.65787 215.997 7 215.294 7 214.427V189.492C7 188.972 7.23703 188.512 7.60127 188.227C7.61696 188.214 7.63265 188.201 7.64722 188.19C7.66179 188.181 7.6758 188.172 7.68981 188.162C7.81533 188.081 8.2328 187.853 8.81838 188.054C9.30365 188.223 9.63371 188.592 9.77884 188.78C9.80686 188.815 9.82703 188.845 9.84104 188.864C10.4535 189.734 11.1394 190.712 11.8763 191.765V187.168C11.8763 186.633 12.106 186.159 12.4619 185.861C12.4652 185.856 12.4697 185.853 12.4736 185.851C12.4899 185.837 12.5073 185.823 12.5241 185.811C12.5246 185.81 12.5263 185.809 12.5269 185.808C12.5341 185.802 12.542 185.797 12.5493 185.792C12.5504 185.791 12.5521 185.79 12.5532 185.789C12.5571 185.786 12.5605 185.783 12.5644 185.782C12.565 185.781 12.5655 185.781 12.5661 185.781C12.57 185.778 12.5751 185.774 12.579 185.772C12.5846 185.768 12.5896 185.765 12.5947 185.762C12.5952 185.761 12.5958 185.761 12.5958 185.76C12.6154 185.753 12.8166 185.637 13.048 185.598C13.0626 185.595 13.0777 185.593 13.094 185.592C13.1057 185.59 13.118 185.589 13.1304 185.588C13.1427 185.587 13.155 185.587 13.1679 185.586C13.2144 185.584 13.2621 185.585 13.3125 185.588C13.3282 185.589 13.3439 185.59 13.3596 185.592C13.3741 185.593 13.3876 185.595 13.4016 185.597C13.429 185.601 13.4571 185.605 13.4862 185.612C13.6622 185.649 13.7933 185.717 13.8801 185.763C14.0791 185.869 14.2091 185.984 14.3408 186.102C14.478 186.225 14.5845 186.343 14.6579 186.429C14.6854 186.466 14.7067 186.497 14.7207 186.519C15.3326 187.426 16.0174 188.444 16.7537 189.541V184.654C16.7537 184.098 16.9834 183.605 17.3387 183.293C17.3505 183.282 17.3617 183.272 17.3729 183.262C17.3936 183.245 17.4144 183.229 17.4362 183.213C17.4413 183.209 17.4463 183.206 17.4525 183.202C17.4575 183.199 17.4631 183.194 17.4687 183.191C17.4704 183.19 17.4721 183.189 17.4738 183.187C17.4782 183.184 17.4827 183.183 17.4872 183.179C17.5023 183.169 17.5197 183.159 17.5393 183.148C17.5399 183.148 17.541 183.147 17.5416 183.147C17.5494 183.142 17.5584 183.138 17.5679 183.133C17.5701 183.131 17.5724 183.131 17.5752 183.129C17.583 183.125 17.5914 183.121 17.5998 183.117C17.6161 183.109 17.6329 183.102 17.6508 183.094C17.6816 183.081 17.7158 183.068 17.7528 183.056C17.764 183.053 17.7758 183.049 17.7881 183.046C17.7904 183.045 17.7932 183.044 17.796 183.044C17.8094 183.04 17.8251 183.036 17.8397 183.033C17.8587 183.027 17.8778 183.024 17.8985 183.021C17.912 183.017 17.9271 183.016 17.9417 183.013C17.9545 183.011 17.9669 183.011 17.9803 183.009C17.987 183.008 17.9938 183.007 18.0005 183.007C18.0167 183.004 18.033 183.004 18.0498 183.003C18.0683 183.002 18.0874 183.002 18.107 183.002C18.2454 183.002 18.4006 183.026 18.5704 183.089C19.0601 183.271 19.3902 183.676 19.532 183.877C19.532 183.878 19.5325 183.879 19.5325 183.879C19.5577 183.913 19.5762 183.941 19.5897 183.962C22.062 187.779 25.7363 193.501 29.1254 198.821C32.515 193.501 36.1899 187.778 38.6628 183.96C38.6757 183.94 38.6947 183.911 38.7194 183.876L38.7199 183.875C38.8623 183.674 39.1923 183.268 39.6821 183.087C39.8519 183.024 40.0071 183 40.1455 183C40.1645 183 40.1836 183.001 40.2021 183.001C40.2189 183.002 40.2352 183.003 40.2514 183.004C40.2587 183.004 40.2654 183.006 40.2721 183.007C40.285 183.008 40.2979 183.01 40.3108 183.011C40.3254 183.013 40.3399 183.016 40.354 183.019C40.3741 183.022 40.3937 183.026 40.4128 183.03C40.4274 183.034 40.4425 183.038 40.4565 183.042C40.4593 183.043 40.4621 183.043 40.4643 183.044C40.4761 183.047 40.4884 183.05 40.4996 183.054C40.5361 183.066 40.5703 183.079 40.6016 183.092C40.6196 183.1 40.6364 183.107 40.6526 183.115C40.661 183.119 40.6694 183.123 40.6773 183.127C40.6801 183.128 40.6818 183.129 40.684 183.131C40.6935 183.136 40.7025 183.14 40.7103 183.145C40.7115 183.145 40.7126 183.146 40.7131 183.146C40.7328 183.157 40.7501 183.167 40.7653 183.177C40.7697 183.18 40.7742 183.183 40.7781 183.185C40.7798 183.187 40.7821 183.188 40.7837 183.189L40.8 183.2C40.8056 183.203 40.8112 183.207 40.8163 183.211C40.8375 183.226 40.8588 183.243 40.8796 183.261C40.8902 183.27 40.9014 183.28 40.9138 183.291C41.2685 183.602 41.4988 184.096 41.4988 184.652V189.539C42.2345 188.442 42.9193 187.424 43.5312 186.517C43.5452 186.495 43.5671 186.465 43.5945 186.427C43.6685 186.34 43.7744 186.224 43.9123 186.1C44.0428 185.983 44.1728 185.866 44.3718 185.76C44.4586 185.716 44.5903 185.647 44.7663 185.61C44.7954 185.603 44.8234 185.598 44.8509 185.595C44.8643 185.593 44.8783 185.591 44.8929 185.589C44.9086 185.588 44.9237 185.587 44.9394 185.586C44.9898 185.582 45.038 185.582 45.0845 185.583C45.0969 185.584 45.1098 185.585 45.1221 185.587C45.1344 185.587 45.1462 185.588 45.1585 185.589C45.1742 185.591 45.1893 185.593 45.2045 185.596C45.437 185.635 45.6382 185.751 45.6561 185.759C45.6567 185.759 45.6567 185.759 45.6572 185.76C45.6628 185.763 45.6679 185.767 45.6729 185.769C45.6774 185.772 45.6819 185.775 45.6864 185.778C45.6869 185.778 45.6875 185.779 45.688 185.779C45.6914 185.781 45.6953 185.784 45.6987 185.787C45.6998 185.788 45.7015 185.788 45.7026 185.789C45.7099 185.795 45.7177 185.8 45.725 185.806C45.7256 185.806 45.7273 185.807 45.7284 185.808C45.7452 185.821 45.762 185.835 45.7788 185.848C45.7828 185.851 45.7867 185.854 45.7906 185.858C46.1459 186.156 46.3762 186.631 46.3762 187.165V191.762C47.1125 190.71 47.7989 189.733 48.4114 188.862C48.4249 188.842 48.4456 188.813 48.4731 188.778C48.6188 188.591 48.9482 188.221 49.4341 188.053C50.0197 187.851 50.4371 188.079 50.5627 188.159C50.5767 188.169 50.5907 188.178 50.6047 188.189C50.6192 188.199 50.6355 188.211 50.6512 188.225C51.0154 188.51 51.2525 188.971 51.2525 189.491Z" fill="#FFE5D9"/>
<path d="M29.0448 212.368L10.3836 216.498C9.94146 216.596 10.0121 217.247 10.4654 217.247H47.7873C48.2406 217.247 48.3112 216.596 47.8691 216.498L29.2079 212.368C29.1541 212.356 29.098 212.356 29.0448 212.368Z" fill="#FFE5D9"/>
<path d="M222.252 18.4907V43.4269C222.252 44.2943 221.594 44.997 220.783 44.997C219.971 44.997 219.313 44.2943 219.313 43.4269V22.9876C218.667 23.9173 218.022 24.8475 217.376 25.7777V42.1644C217.376 43.0688 216.718 43.8012 215.907 43.8012C215.095 43.8012 214.437 43.0688 214.437 42.1644V20.8565C213.791 21.8277 213.145 22.7982 212.499 23.7693V40.7528C212.499 41.6959 211.84 42.4597 211.028 42.4597C210.217 42.4597 209.559 41.6959 209.559 40.7528V18.5366C206.997 22.5466 204.434 26.5566 201.872 30.566C201.29 31.4766 200.708 32.3877 200.125 33.2983C199.543 32.3877 198.96 31.4766 198.379 30.566C195.817 26.5566 193.255 22.5472 190.693 18.5389V40.7556C190.693 41.6976 190.035 42.4619 189.224 42.4619C188.412 42.4619 187.754 41.6976 187.754 40.7556V23.771C187.108 22.7999 186.461 21.8293 185.815 20.8582V42.1644C185.815 43.0688 185.157 43.8012 184.345 43.8012C183.534 43.8012 182.876 43.0688 182.876 42.1644V25.7793C182.23 24.8497 181.585 23.9195 180.939 22.9893V43.4269C180.939 44.2943 180.281 44.997 179.469 44.997C178.658 44.997 178 44.2943 178 43.4269V18.4924C178 17.9724 178.237 17.5123 178.601 17.2265C178.617 17.2136 178.633 17.2013 178.647 17.1901C178.662 17.1811 178.676 17.1716 178.69 17.1621C178.815 17.0808 179.233 16.8527 179.818 17.0545C180.304 17.2231 180.634 17.5919 180.779 17.7796C180.807 17.8155 180.827 17.8452 180.841 17.8642C181.454 18.7344 182.139 19.7117 182.876 20.7646V16.168C182.876 15.6334 183.106 15.1588 183.462 14.8607C183.465 14.8562 183.47 14.8534 183.474 14.8506C183.49 14.8371 183.507 14.8231 183.524 14.8108C183.525 14.8102 183.526 14.8091 183.527 14.808C183.534 14.8024 183.542 14.7973 183.549 14.7917C183.55 14.7906 183.552 14.79 183.553 14.7895C183.557 14.7861 183.56 14.7833 183.564 14.7816C183.565 14.7811 183.566 14.7805 183.566 14.7805C183.57 14.7777 183.575 14.7744 183.579 14.7716C183.585 14.7682 183.59 14.7648 183.595 14.762C183.595 14.7615 183.596 14.7615 183.596 14.7604C183.615 14.7525 183.817 14.6371 184.048 14.5978C184.063 14.595 184.078 14.5934 184.094 14.5917C184.106 14.59 184.118 14.5889 184.13 14.5883C184.143 14.5872 184.155 14.5866 184.168 14.5861C184.214 14.5838 184.262 14.585 184.312 14.5878C184.328 14.5889 184.344 14.59 184.36 14.5917C184.374 14.5934 184.388 14.595 184.402 14.5973C184.429 14.6012 184.457 14.6051 184.486 14.6119C184.662 14.6494 184.793 14.7172 184.88 14.7632C185.079 14.8685 185.209 14.9845 185.341 15.1022C185.478 15.2255 185.585 15.3426 185.658 15.4294C185.685 15.4664 185.707 15.4972 185.721 15.5185C186.333 16.4263 187.017 17.4445 187.754 18.5411V13.6542C187.754 13.0978 187.983 12.6046 188.339 12.2925C188.35 12.2819 188.362 12.2718 188.373 12.2623C188.394 12.2454 188.414 12.2286 188.436 12.2129C188.441 12.209 188.446 12.2057 188.452 12.2023C188.458 12.1989 188.463 12.1944 188.469 12.1911C188.47 12.19 188.472 12.1894 188.474 12.1872C188.478 12.1844 188.483 12.1827 188.487 12.1793C188.502 12.1692 188.52 12.1586 188.539 12.1485C188.54 12.1479 188.541 12.1474 188.542 12.1468C188.549 12.1423 188.558 12.1378 188.568 12.1328C188.57 12.1311 188.572 12.1306 188.575 12.1294C188.583 12.125 188.591 12.121 188.6 12.1171C188.616 12.1093 188.633 12.102 188.651 12.0941C188.682 12.0807 188.716 12.0684 188.753 12.056C188.764 12.0532 188.776 12.0493 188.788 12.0459C188.79 12.0448 188.793 12.0443 188.796 12.0437C188.809 12.0398 188.825 12.0364 188.84 12.0325C188.859 12.0275 188.878 12.0241 188.899 12.0207C188.912 12.0174 188.927 12.0157 188.942 12.0134C188.955 12.0112 188.967 12.0106 188.98 12.009C188.987 12.0078 188.994 12.0073 189 12.0067C189.017 12.0045 189.033 12.0039 189.05 12.0034C189.068 12.0022 189.087 12.0017 189.107 12.0017C189.245 12.0017 189.401 12.0258 189.57 12.0885C190.06 12.2712 190.39 12.6764 190.532 12.877C190.532 12.8775 190.533 12.8787 190.533 12.8787C190.558 12.9128 190.576 12.9414 190.59 12.9616C193.062 16.7793 196.736 22.5012 200.125 27.8213C203.515 22.5007 207.19 16.7777 209.663 12.9599C209.676 12.9397 209.695 12.9112 209.719 12.8758L209.72 12.8753C209.862 12.6741 210.192 12.2684 210.682 12.0869C210.852 12.0235 211.007 12 211.145 12C211.165 12 211.184 12.0006 211.202 12.0011C211.219 12.0017 211.235 12.0028 211.251 12.0045C211.259 12.0045 211.265 12.0056 211.272 12.0067C211.285 12.0078 211.298 12.0101 211.311 12.0112C211.325 12.0134 211.34 12.0157 211.354 12.0191C211.374 12.0219 211.394 12.0263 211.413 12.0303C211.427 12.0342 211.442 12.0375 211.456 12.042C211.459 12.0426 211.462 12.0431 211.464 12.0437C211.476 12.0471 211.488 12.0504 211.5 12.0538C211.536 12.0661 211.57 12.079 211.602 12.0919C211.62 12.0997 211.636 12.107 211.653 12.1149C211.661 12.1188 211.669 12.1227 211.677 12.1272C211.68 12.1283 211.682 12.1294 211.684 12.1311C211.694 12.1356 211.702 12.1401 211.71 12.1446C211.711 12.1451 211.713 12.1457 211.713 12.1463C211.733 12.1569 211.75 12.167 211.765 12.1765C211.77 12.1799 211.774 12.1827 211.778 12.1855C211.78 12.1866 211.782 12.1877 211.784 12.1894L211.8 12.2C211.806 12.2034 211.811 12.2068 211.816 12.2107C211.838 12.2264 211.859 12.2426 211.88 12.2606C211.89 12.2695 211.901 12.2802 211.914 12.2908C212.268 12.6018 212.499 13.0961 212.499 13.652V18.5394C213.235 17.4423 213.919 16.4235 214.531 15.5168C214.545 15.495 214.567 15.4647 214.595 15.4272C214.669 15.3403 214.774 15.2238 214.912 15.1005C215.043 14.9828 215.173 14.8657 215.372 14.7604C215.459 14.7155 215.59 14.6472 215.766 14.6096C215.795 14.6034 215.823 14.5978 215.851 14.595C215.864 14.5928 215.878 14.5906 215.893 14.5894C215.909 14.5878 215.924 14.5872 215.939 14.5855C215.99 14.5816 216.038 14.5816 216.085 14.5833C216.097 14.5838 216.11 14.585 216.122 14.5866C216.134 14.5872 216.146 14.5878 216.159 14.5889C216.174 14.5906 216.189 14.5928 216.204 14.5956C216.437 14.6348 216.638 14.7514 216.656 14.7592C216.657 14.7592 216.657 14.7592 216.657 14.7598C216.663 14.7632 216.668 14.7665 216.673 14.7688C216.677 14.7721 216.682 14.7755 216.686 14.7783C216.687 14.7783 216.687 14.7788 216.688 14.7794C216.691 14.7811 216.695 14.7839 216.699 14.7867C216.7 14.7878 216.701 14.7884 216.703 14.7895C216.71 14.7951 216.718 14.8001 216.725 14.8057C216.726 14.8063 216.727 14.8074 216.728 14.808C216.745 14.8209 216.762 14.8349 216.779 14.8478C216.783 14.8511 216.787 14.8545 216.791 14.8584C217.146 15.156 217.376 15.6306 217.376 16.1652V20.7624C218.112 19.71 218.799 18.7328 219.411 17.862C219.425 17.8424 219.446 17.8132 219.473 17.7779C219.619 17.5907 219.948 17.2209 220.434 17.0528C221.02 16.8505 221.437 17.0786 221.563 17.1593C221.577 17.1688 221.591 17.1783 221.605 17.189C221.619 17.1991 221.635 17.2114 221.651 17.2248C222.015 17.5101 222.252 17.9707 222.252 18.4907Z" fill="#FFE5D9"/>
<path d="M200.045 41.3682L181.384 45.4975C180.941 45.5961 181.012 46.2467 181.465 46.2467H218.787C219.241 46.2467 219.311 45.5961 218.869 45.4975L200.208 41.3682C200.154 41.3564 200.098 41.3564 200.045 41.3682Z" fill="#FFE5D9"/>
</svg>
