<svg width="98" height="99" viewBox="0 0 98 99" fill="none" xmlns="http://www.w3.org/2000/svg">
<path d="M86.6743 26.2537C85.7285 18.2115 84.6455 10.4592 83.6996 2.41712C83.6914 2.36473 83.6253 2.35361 83.6109 2.39879C73.4595 19.378 63.7344 36.6127 54.4655 54.0873C57.6326 55.3955 60.3858 57.2836 63.1426 59.3322C63.2173 59.1918 63.2435 59.0159 63.2068 58.8499C63.2137 59.0313 63.2327 59.2216 63.2395 59.403C70.1513 47.4491 79.9442 38.3401 86.6687 26.2867C86.6687 26.2867 86.676 26.2641 86.6743 26.2537Z" fill="#E7A937"/>
<path d="M62.4101 62.9566L62.2102 59.9609C59.3702 57.8609 56.8708 56.2229 54.0492 55.0646L52.9709 54.6214L53.5184 53.5912C62.7641 36.1739 72.5797 18.7641 82.6885 1.85588L83.0804 1.20426L84.6188 1.50048L84.7432 2.2968C85.2157 6.28037 85.7218 10.205 86.2175 14.1313C86.7318 18.1083 87.234 22.0765 87.7179 26.1334L87.7494 26.4719L87.5857 26.7981C84.0878 33.0553 79.7463 38.5857 75.5375 43.9343C71.5689 48.9663 67.4783 54.1784 64.1493 59.9369L62.4014 62.9687L62.4101 62.9566ZM62.1755 58.9144L62.3327 58.8898L62.2042 58.8241C62.1865 58.8483 62.181 58.8814 62.1649 58.9161L62.1755 58.9144ZM55.9421 53.5773C58.337 54.6842 60.5351 56.1117 62.9324 57.8515C66.2185 52.368 70.113 47.412 73.8927 42.6135C77.9849 37.4119 82.2115 32.039 85.5915 26.0579C85.1273 22.1267 84.631 18.2649 84.1347 14.4032C83.7582 11.4458 83.3697 8.47956 83.0093 5.48746C73.6427 21.2385 64.5441 37.3984 55.9421 53.5773Z" fill="#E7A937"/>
<path d="M42.9486 54.2988C43.2607 54.3036 42.8128 54.803 42.6147 54.5656C33.5505 43.9605 23.2579 34.4921 12.9911 25.0518C10.2962 22.5749 7.46858 20.2797 4.7471 17.8392C4.41014 17.5376 3.87054 17.7937 3.90954 18.2492C4.4172 25.1362 4.99001 31.9592 5.88862 38.8065C5.90828 38.9323 5.96983 39.0515 6.0684 39.1327C16.6134 47.9498 27.5186 56.3243 38.7509 64.2505C39.2216 62.1804 40.973 60.5434 41.4889 58.4877C41.8411 57.1017 41.893 55.2366 42.9575 54.2866L42.9486 54.2988Z" fill="#E7A937"/>
<path d="M39.4285 66.0445L38.137 65.1301C26.929 57.2216 15.9115 48.7466 5.39234 39.9575C5.08453 39.7051 4.88936 39.3492 4.8376 38.9494C3.88559 31.6918 3.30129 24.4519 2.8487 18.3292C2.80281 17.6923 3.1384 17.0924 3.71663 16.8088C4.29487 16.5252 4.974 16.6123 5.45077 17.053C6.64992 18.1321 7.87557 19.1749 9.09076 20.2194C10.6154 21.5267 12.1901 22.8799 13.7069 24.2744C23.6334 33.3922 33.888 42.8237 42.8687 53.2379L42.9525 53.2248C43.5137 53.2444 43.9653 53.5924 44.0891 54.1098C44.2194 54.669 43.9136 55.2535 43.3475 55.546C43.3266 55.5492 43.3177 55.5614 43.2984 55.5751C43.0175 56.1128 42.8791 56.8751 42.7462 57.6043C42.6689 58.0028 42.6021 58.3996 42.5079 58.7578C42.2172 59.9196 41.6108 60.916 41.031 61.8761C40.4833 62.7668 39.9725 63.6195 39.7771 64.498L39.4285 66.0445ZM6.90861 38.4647C16.9817 46.8726 27.5025 54.9851 38.2115 62.5852C38.5091 61.9483 38.8673 61.3556 39.2166 60.7751C39.7362 59.9103 40.2309 59.0923 40.4522 58.2419C40.5304 57.9184 40.5949 57.5756 40.6577 57.2223C40.809 56.4043 40.9697 55.5098 41.3508 54.7203C32.4219 44.3624 22.1793 34.9398 12.2754 25.8292C10.7845 24.4629 9.22192 23.1185 7.72151 21.8288C6.84 21.065 5.94964 20.3132 5.07697 19.5373C5.5004 25.2674 6.05816 31.8567 6.9191 38.463L6.90861 38.4647Z" fill="#E7A937"/>
<path d="M43.8372 50.5745C41.706 51.8414 39.8184 53.4997 38.0674 55.2762C35.7244 57.6604 33.5702 60.3586 32.37 63.5302C30.0682 69.6112 31.6717 76.9172 35.7669 81.966C39.8622 87.0148 46.1486 89.8749 52.4689 90.4112C53.6656 90.5139 54.8598 90.5312 56.0504 90.388C57.3876 90.2219 58.7008 89.8342 59.968 89.357C66.2232 87.0053 71.8361 82.1241 73.8046 75.5585C75.5242 69.8047 74.2112 63.2583 70.8281 58.3021C67.445 53.346 62.1249 49.9377 56.4418 48.4646C52.0561 47.3254 47.7204 48.2929 43.8509 50.5938L43.8372 50.5745Z" fill="#60301B"/>
<path d="M56.5911 91.377C56.4549 91.3983 56.3188 91.4196 56.1826 91.4409C55.046 91.5863 53.8341 91.5933 52.376 91.467C45.3711 90.8768 39.0171 87.6516 34.9372 82.6326C30.4028 77.0406 29.0047 69.4019 31.3779 63.1595C32.4651 60.2953 34.3549 57.5526 37.318 54.5347C39.439 52.3784 41.3326 50.8266 43.3076 49.6591C47.6876 47.0531 52.3227 46.2856 56.7068 47.4143C62.8716 49.0161 68.34 52.7553 71.7077 57.6817C75.3813 63.0541 76.5751 70.0055 74.8267 75.8497C72.9158 82.2345 67.5051 87.653 60.3468 90.3391C58.9572 90.8569 57.7542 91.1952 56.6017 91.3753L56.5911 91.377ZM50.5026 49.1999C48.4489 49.5209 46.3891 50.283 44.3859 51.4763C42.5791 52.5531 40.8177 53.9877 38.8271 56.0163C36.0771 58.8183 34.3432 61.322 33.3617 63.9013C31.2857 69.3673 32.5822 76.3564 36.5845 81.2909C40.2956 85.8738 46.1208 88.806 52.5491 89.3468C53.8539 89.4541 54.9263 89.4475 55.9056 89.3266C57.0212 89.1844 58.1855 88.8736 59.5751 88.3559C66.1139 85.8954 71.0472 80.9917 72.7668 75.2379C74.3313 70.002 73.2437 63.7317 69.931 58.8826C66.8433 54.374 61.8304 50.9392 56.1473 49.4661C54.3021 48.9924 52.3992 48.9034 50.4817 49.2032L50.5026 49.1999Z" fill="#E7A937"/>
<path d="M63.5144 62.3973C63.7514 62.0597 63.4665 61.6105 63.0563 61.6638C60.4964 62.0425 57.9994 62.4114 55.429 62.7917C54.2436 60.7014 52.7723 58.7739 51.3042 56.8673C51.0874 56.5792 50.8602 56.2927 50.6048 56.0321C50.018 55.4369 49.0003 55.7247 48.8386 56.5443C48.2474 59.492 47.7362 62.47 47.3209 65.4438C46.6496 65.6132 46.1644 65.6675 45.4931 65.8369C43.56 66.3108 41.6285 66.7952 39.6953 67.2691C39.5502 67.3025 39.3698 67.3844 39.3944 67.5416C39.4075 67.6254 39.4923 67.6873 39.565 67.7403C39.8509 67.9211 40.1561 68.088 40.4491 68.2462C42.8824 69.5296 44.8412 70.6617 47.5164 71.2954C46.9633 74.967 46.6698 78.6517 46.6812 82.3638C46.6861 82.3953 46.7208 82.4113 46.7385 82.3871C49.1741 79.6342 51.4958 76.7703 53.6858 73.8196C57.1417 75.877 60.669 77.7729 64.2775 79.5703C64.3017 79.588 64.3298 79.5621 64.3249 79.5307L58.6861 68.6585C58.6553 68.5989 58.6195 68.5079 58.6758 68.4562C58.7321 68.4044 61.8855 64.6806 63.5353 62.394L63.5144 62.3973Z" fill="#E75837"/>
<path d="M47.0431 83.6488L45.6412 83.1273L45.6298 82.3669C45.6217 79.0192 45.8552 75.5693 46.3419 72.0906C44.2836 71.4892 42.6326 70.6095 40.7596 69.6142L39.9636 69.1913C39.6358 69.0171 39.3185 68.8413 39.0084 68.6429C38.6273 68.4019 38.4056 68.0823 38.3433 67.6842C38.2654 67.1167 38.5806 66.4556 39.4493 66.2447L45.2471 64.8124C45.5985 64.7253 45.9007 64.6673 46.2134 64.6077C46.2763 64.5979 46.3287 64.5897 46.3915 64.5799C46.7889 61.8343 47.2684 59.0651 47.8206 56.349C47.9695 55.5851 48.5388 54.9701 49.2889 54.7563C50.0374 54.5319 50.8548 54.7476 51.3932 55.3075C51.6866 55.6051 51.9412 55.9303 52.1718 56.2377C53.4934 57.9632 54.8548 59.7362 56.0124 61.6483L62.936 60.6197C63.5437 60.5247 64.1475 60.8168 64.4648 61.3361C64.7822 61.8554 64.7563 62.5142 64.3939 63.0109C63.08 64.8371 60.8297 67.5396 59.8891 68.6634L65.6323 79.7232L64.5644 80.8562L63.8371 80.5298C60.3118 78.7838 57.0881 77.0444 53.9802 75.2224C51.9549 77.9219 49.7922 80.5677 47.5472 83.0977L47.0535 83.6471L47.0431 83.6488ZM41.9074 67.8247C43.8619 68.861 45.5792 69.7518 47.7639 70.269L48.7118 70.4965L48.5626 71.4644C48.1498 74.1802 47.8976 76.8924 47.7871 79.5502C49.5358 77.4843 51.2206 75.3532 52.8256 73.1917L53.3929 72.4268L54.2214 72.9198C56.6825 74.3813 59.2104 75.7895 61.8971 77.1835L57.7205 69.142C57.4127 68.546 57.5993 68.0231 57.8743 67.7225C58.0472 67.5237 60.1858 64.9997 61.7829 62.9253L54.8593 63.9539L54.503 63.3226C53.3484 61.2919 51.8787 59.3749 50.4608 57.5142C50.2715 57.2647 50.07 57.0063 49.8405 56.7739C49.2847 59.673 48.7735 62.6511 48.3549 65.604L48.2518 66.3178L47.5596 66.4904C47.2083 66.5775 46.906 66.6355 46.5933 66.6951C46.3225 66.7482 46.0518 66.8012 45.7319 66.8834L41.8986 67.8368L41.9074 67.8247ZM59.4782 69.1248C59.4782 69.1248 59.4428 69.1733 59.4323 69.1749C59.4516 69.1612 59.4589 69.1386 59.4782 69.1248Z" fill="#E7A937"/>
</svg>
