<svg width="89" height="90" viewBox="0 0 89 90" fill="none" xmlns="http://www.w3.org/2000/svg">
<path d="M87.6999 24.1147C82.2301 16.8554 77.0979 9.43849 70.874 2.80942C69.5684 1.42508 67.0023 0.817314 65.2353 1.50386C63.5921 2.14539 62.2528 3.37216 60.9585 4.56517C43.311 20.9521 26.3725 38.0707 9.63665 55.3806C6.55283 58.5657 3.40149 61.8971 1.89335 66.0614C0.385198 70.2256 2.17472 76.1119 5.51739 79.0832C8.07223 81.3566 10.1656 84.1928 12.8217 86.3313C15.2978 88.3234 18.4491 90.2367 21.668 87.468C22.8497 86.4551 23.6376 85.0595 24.0878 83.5626C27.9707 70.6533 32.3038 57.8791 37.0646 45.2625C37.4247 44.3058 38.1 43.1466 39.1129 43.3154C39.7319 43.4167 40.1371 43.9907 40.4748 44.5084C43.6261 49.3255 47.1151 53.9174 50.9305 58.228C51.0655 58.3743 51.2906 58.3856 51.4369 58.2505L87.6661 24.5649C87.8012 24.4411 87.8124 24.2498 87.7112 24.1035L87.6999 24.1147Z" fill="#E7A937"/>
<path d="M18.2689 89.9779C15.5565 89.9779 13.2268 88.1096 12.1238 87.2205C10.5931 85.9825 9.24256 84.5419 7.94826 83.1463C6.93533 82.0546 5.87737 80.9178 4.7744 79.9387C0.981533 76.5735 -0.78547 70.1807 0.835221 65.6901C2.45591 61.1994 5.84361 57.6992 8.82614 54.6041C23.5699 39.3426 41.1949 21.3687 60.1818 3.74372C61.4761 2.53946 62.9392 1.18888 64.8188 0.457319C66.9909 -0.386791 70.0748 0.322262 71.6842 2.04425C76.6476 7.32275 80.9807 13.1865 85.1787 18.8589C86.3042 20.3895 87.4409 21.9202 88.5889 23.4396C89.0391 24.0473 88.9716 24.8914 88.4088 25.4092L52.1909 59.0948C51.8983 59.3649 51.5043 59.4999 51.1104 59.4887C50.7165 59.4662 50.3338 59.2861 50.075 58.9935C46.2371 54.6491 42.6918 49.9896 39.5292 45.1501C39.1691 44.5873 39.0003 44.4635 38.9215 44.4523C38.8539 44.4523 38.4713 44.7224 38.1111 45.6791C33.3841 58.2169 29.0285 71.0811 25.1681 83.9116C24.6279 85.7236 23.6712 87.2543 22.3994 88.346C20.9926 89.5615 19.5857 90.0005 18.2689 90.0005V89.9779ZM66.8559 2.34813C66.4169 2.34813 66.0005 2.41566 65.6404 2.55072C64.1547 3.12471 62.8604 4.32897 61.7124 5.39818C42.7594 22.9894 25.1569 40.9408 10.4356 56.1685C7.61061 59.0948 4.40299 62.4149 2.93987 66.4554C1.62305 70.0907 3.14245 75.493 6.24878 78.2504C7.44178 79.3084 8.52223 80.4789 9.58018 81.6156C10.8857 83.0112 12.1125 84.3393 13.5194 85.4648C16.2318 87.6482 18.539 88.6836 20.9251 86.624C21.8592 85.8137 22.5795 84.6432 23.0072 83.2476C26.8788 70.3721 31.257 57.4628 36.0065 44.8687C37.0307 42.145 38.6514 42.1 39.3041 42.2126C40.4409 42.4039 41.0824 43.3831 41.42 43.9008C44.3801 48.4365 47.689 52.8033 51.2455 56.8888L86.3717 24.2274C85.37 22.8881 84.3683 21.5375 83.3779 20.1982C79.2249 14.582 74.9143 8.76336 70.0522 3.58616C69.3319 2.82083 68.0264 2.34813 66.8559 2.34813Z" fill="#E7A937"/>
<path d="M18.2689 89.9889C15.8941 89.9889 13.767 88.537 12.1238 87.2202C10.5931 85.9822 9.24253 84.5415 7.94823 83.1459C6.57514 81.6716 5.2921 80.2872 3.79521 79.1167C-0.39158 75.8528 -0.672956 69.8653 0.835187 65.6898C2.45588 61.1991 5.84358 57.6988 8.8261 54.615C23.5699 39.3535 41.1949 21.3796 60.1818 3.7546C61.4986 2.52783 62.9955 1.14349 64.9313 0.423178C66.8446 -0.285875 69.512 -0.218346 71.1777 1.5149C76.3549 6.93971 80.8456 13.006 85.1787 18.8698C86.3717 20.4792 87.5647 22.0887 88.769 23.6981C89.1404 24.1933 89.0391 24.9024 88.5439 25.2738C88.0486 25.6452 87.3396 25.5439 86.9682 25.0487C85.7527 23.4392 84.5597 21.8186 83.3667 20.2091C79.0673 14.4016 74.6217 8.39158 69.5458 3.06806C68.6004 2.07764 66.8896 2.08889 65.7191 2.52783C64.1997 3.09057 62.8829 4.31734 61.7124 5.3978C42.7593 22.989 25.1568 40.9405 10.4355 56.1682C7.61057 59.0944 4.40296 62.4146 2.93983 66.4438C1.65679 70.0003 2.0057 74.8737 5.16829 77.3272C6.80024 78.599 8.21833 80.1297 9.59142 81.5928C10.897 82.9884 12.1238 84.3164 13.5306 85.4419C15.1063 86.7025 16.9633 87.963 18.7979 87.6704C21.454 87.254 22.7933 83.9113 23.6712 81.0413C27.374 68.9086 31.5271 56.7309 36.0065 44.8459C37.0307 42.1222 38.6513 42.0772 39.3041 42.1897C40.4409 42.3811 41.0824 43.3602 41.42 43.878C44.5939 48.7288 48.1504 53.3995 52.0108 57.7326C52.4272 58.1941 52.3822 58.9031 51.9207 59.3195C51.4593 59.736 50.7502 59.6909 50.3338 59.2295C46.4059 54.8064 42.7818 50.0568 39.5405 45.116C39.1803 44.5532 39.0115 44.4294 38.9327 44.4182C38.8652 44.4182 38.4825 44.6883 38.1224 45.645C33.6542 57.485 29.5237 69.6177 25.8321 81.7053C24.7629 85.1943 23.0409 89.2798 19.158 89.8988C18.8542 89.9438 18.5615 89.9664 18.2689 89.9664V89.9889Z" fill="#17000B"/>
<path d="M59.1799 55.5044C58.8535 55.5044 58.5271 55.3581 58.3132 55.088L44.965 38.7573C44.5711 38.2733 44.6387 37.5643 45.1226 37.1704C45.6066 36.7765 46.3156 36.844 46.7095 37.3279L60.0577 53.6587C60.4516 54.1426 60.3841 54.8517 59.9002 55.2456C59.6863 55.4144 59.4387 55.5044 59.1911 55.5044H59.1799Z" fill="#17000B"/>
<path d="M67.3059 47.5693C67.0583 47.5693 66.7994 47.4906 66.5968 47.3217C66.5068 47.2429 66.428 47.1529 66.3605 47.0629C65.5276 46.0724 56.6026 36.2583 51.3804 30.5971C50.9639 30.1357 50.9864 29.4266 51.4479 29.0102C51.9093 28.5937 52.6184 28.6163 53.0348 29.0777C55.6684 31.9364 59.4613 36.0782 62.5789 39.5222C64.1433 41.2441 65.5389 42.786 66.5406 43.9003C68.6677 46.2638 68.8478 46.4664 68.1275 47.2317C67.9024 47.468 67.6098 47.5918 67.3059 47.5918V47.5693Z" fill="#17000B"/>
<path d="M74.5543 42.0435C74.2167 42.0435 73.879 41.8972 73.6652 41.6046C69.1408 35.7071 64.425 29.8321 59.6417 24.1484C59.2365 23.6757 59.3041 22.9666 59.7768 22.5615C60.2495 22.1563 60.9585 22.2238 61.3637 22.6965C66.1695 28.4027 70.9079 34.3115 75.4436 40.2315C75.8262 40.7267 75.7248 41.4357 75.2296 41.8072C75.027 41.9646 74.7794 42.0435 74.5431 42.0435H74.5543Z" fill="#17000B"/>
<path d="M82.2523 33.2868C81.9034 33.2868 81.5545 33.118 81.3294 32.8028C77.4128 27.2205 73.1022 21.8407 68.5327 16.7873C68.1163 16.3258 68.1501 15.6168 68.6115 15.2003C69.073 14.7839 69.782 14.8177 70.1985 15.2791C74.8354 20.4001 79.2023 25.8586 83.164 31.5085C83.5241 32.015 83.4003 32.7241 82.8939 33.073C82.7025 33.208 82.4662 33.2755 82.2523 33.2755V33.2868Z" fill="#17000B"/>
</svg>
