<svg width="80" height="79" viewBox="0 0 80 79" fill="none" xmlns="http://www.w3.org/2000/svg">
<path d="M70.359 76.4603C70.359 76.8303 70.0589 77.1203 69.6889 77.1203L52.079 76.9903C52.209 67.0903 52.039 59.5403 49.989 49.8803C49.489 47.5003 48.839 45.0903 47.519 43.0403C46.189 40.9903 44.069 39.3203 41.639 39.1003C39.459 38.9103 37.2789 39.8803 35.6789 41.3903C34.0689 42.8803 32.969 44.8403 32.099 46.8603C30.689 50.1503 29.8289 53.6203 29.1489 57.1403C27.7189 64.4003 26.9989 69.4203 27.0289 76.8103L11.709 76.6903C11.369 76.6903 11.0789 76.4203 11.0689 76.0703C10.1289 59.1403 9.76897 42.1703 10.0389 25.2203C19.6889 16.9303 29.6689 9.0403 39.9789 1.58028C41.0889 0.77028 42.629 0.87028 43.629 1.81028C52.679 10.2303 61.6089 18.6003 70.2589 27.4403C70.2889 46.7103 70.349 72.1003 70.359 76.4803V76.4603Z" fill="#E7A937"/>
<path d="M69.6988 78.1102L51.0788 77.9702V76.9602C51.2088 67.8002 51.1388 60.0102 49.0288 50.0702C48.5588 47.8402 47.9488 45.5002 46.6988 43.5602C45.3988 41.5602 43.4788 40.2502 41.5588 40.0702C39.8188 39.9202 37.8888 40.6702 36.3788 42.0902C35.0888 43.2802 34.0288 44.9102 33.0388 47.2202C31.5388 50.7202 30.7088 54.4403 30.1488 57.2902C28.7288 64.5003 28.0188 69.4902 28.0488 76.7702V77.7802L11.7188 77.6502C10.8288 77.6502 10.1088 76.9502 10.0788 76.0602C9.12884 59.0502 8.77884 41.9202 9.04884 25.1602V24.7102L9.39883 24.4202C19.0588 16.1202 29.1588 8.15025 39.3988 0.73025C40.8888 -0.349752 42.9688 -0.219752 44.3188 1.04025C53.4888 9.5702 62.4288 17.9502 70.9888 26.7002L71.2688 26.9902V27.4002C71.2988 46.6702 71.3589 72.0602 71.3689 76.4402C71.3689 77.3602 70.6188 78.1002 69.6988 78.1002V78.1102ZM53.0988 75.9902L69.3588 76.1102C69.3488 70.9102 69.2988 46.5902 69.2688 27.8302C60.8188 19.2102 51.9988 10.9402 42.9488 2.52025C42.2888 1.91025 41.2888 1.84025 40.5588 2.37025C30.4788 9.6602 20.5388 17.5002 11.0288 25.6602C10.7788 42.1202 11.1188 58.9502 12.0488 75.6702L26.0388 75.7802C26.0788 68.8802 26.7988 63.9202 28.1788 56.9202C28.7588 53.9702 29.6188 50.1203 31.1888 46.4403C32.2988 43.8603 33.5088 42.0202 35.0088 40.6302C36.9488 38.8002 39.4088 37.8703 41.7388 38.0802C44.2588 38.3102 46.7388 39.9603 48.3688 42.4702C49.7988 44.6802 50.4688 47.2302 50.9788 49.6502C53.0488 59.4302 53.1988 67.1302 53.0988 75.9802V75.9902ZM12.0688 75.9802C12.0688 75.9802 12.0688 75.9802 12.0688 75.9902C12.0688 75.9902 12.0688 75.9902 12.0688 75.9802Z" fill="#60301B"/>
<path d="M78.9289 38.3201C78.6189 38.3201 78.3089 38.1701 78.1089 37.9001C75.7589 34.5701 72.9489 31.6101 70.0389 28.6301C69.9489 28.5401 69.8789 28.4601 69.8089 28.3901C69.7189 28.3001 69.6289 28.2101 69.5389 28.1101C69.1589 27.7101 69.1789 27.0701 69.5889 26.7001C69.9889 26.3201 70.6289 26.3401 70.9989 26.7501C71.0689 26.8301 71.1489 26.9001 71.2289 26.9801C71.3189 27.0701 71.4089 27.1601 71.4989 27.2501C74.4589 30.2801 77.3289 33.3101 79.7589 36.7501C80.0789 37.2001 79.9689 37.8301 79.5189 38.1401C79.3389 38.2601 79.1389 38.3201 78.9389 38.3201H78.9289Z" fill="#60301B"/>
<path d="M0.998703 34.1903C0.728703 34.1903 0.458698 34.0803 0.258698 33.8603C-0.111302 33.4503 -0.0812947 32.8203 0.328705 32.4503C3.22871 29.8103 6.2787 27.1103 9.3887 24.4403C9.8087 24.0803 10.4387 24.1303 10.7987 24.5503C11.1587 24.9703 11.1087 25.6003 10.6887 25.9603C7.59871 28.6203 4.5587 31.3003 1.6687 33.9303C1.4787 34.1003 1.2387 34.1903 0.998703 34.1903Z" fill="#60301B"/>
<path d="M52.089 76.9806L27.039 76.7906C27.009 69.3906 27.729 64.3806 29.159 57.1206C29.849 53.6106 30.709 50.1306 32.109 46.8406C32.979 44.8206 34.079 42.8706 35.689 41.3706C37.289 39.8706 39.469 38.8906 41.649 39.0806C44.089 39.3106 46.199 40.9706 47.529 43.0206C48.849 45.0706 49.489 47.4806 49.999 49.8606C52.049 59.5206 52.219 67.0706 52.089 76.9706V76.9806Z" fill="#60301B"/>
<path d="M53.0789 77.9905L26.0489 77.7805V76.7905C26.0089 69.3505 26.7389 64.2605 28.1789 56.9205C28.7589 53.9705 29.6189 50.1205 31.1889 46.4405C32.2989 43.8605 33.5089 42.0205 35.0089 40.6305C36.9489 38.8005 39.4089 37.8705 41.7389 38.0805C44.2589 38.3105 46.7389 39.9605 48.3689 42.4705C49.7989 44.6805 50.4689 47.2305 50.9789 49.6505C53.1289 59.7905 53.2089 67.7005 53.0889 76.9905V77.9805L53.0789 77.9905ZM28.0289 75.8005L51.0889 75.9805C51.1889 67.2505 51.0389 59.6605 49.0089 50.0805C48.5389 47.8505 47.9289 45.5105 46.6789 43.5705C45.3789 41.5705 43.4589 40.2605 41.5389 40.0805C39.7989 39.9305 37.8689 40.6805 36.3589 42.1005C35.0689 43.2905 34.0089 44.9205 33.0189 47.2305C31.5189 50.7305 30.6889 54.4505 30.1289 57.3005C28.7789 64.1805 28.0589 69.0405 28.0289 75.7905V75.8005Z" fill="#60301B"/>
<path d="M37.0088 15.2706C35.3188 16.2006 34.0188 17.8306 33.4988 19.6906C33.1788 20.8106 33.1388 21.9906 33.1888 23.1606C33.2388 24.3506 33.3788 25.5706 33.9088 26.6406C34.9588 28.7806 37.3788 29.9506 39.7388 30.2406C41.2388 30.4206 42.8088 30.3006 44.1788 29.6606C46.4888 28.5906 47.9588 26.2106 48.5988 23.7506C48.9288 22.4606 49.0688 21.0906 48.7088 19.8106C47.4688 15.3906 40.8188 13.1906 37.0088 15.2706Z" fill="#60301B"/>
<path d="M40.9586 31.3004C40.5186 31.3004 40.0686 31.2704 39.6186 31.2204C36.5786 30.8504 34.1086 29.3004 33.0086 27.0704C32.3686 25.7604 32.2286 24.3104 32.1886 23.1904C32.1286 21.6504 32.2386 20.4904 32.5386 19.4104C33.1386 17.2804 34.5986 15.4504 36.5386 14.3804C38.7386 13.1704 41.8486 13.1504 44.6486 14.3304C47.2186 15.4104 49.0586 17.3004 49.6786 19.5204C50.0486 20.8304 50.0086 22.2904 49.5686 23.9804C48.7686 27.0604 46.9586 29.4604 44.5986 30.5504C43.5286 31.0404 42.2886 31.3004 40.9586 31.3004ZM40.4186 15.4704C39.3286 15.4704 38.3086 15.6904 37.4986 16.1404C36.0486 16.9404 34.9186 18.3604 34.4686 19.9604C34.2286 20.8204 34.1386 21.7904 34.1986 23.1204C34.2386 24.1004 34.3386 25.2304 34.8186 26.1904C35.7586 28.1004 38.0486 29.0204 39.8686 29.2404C41.3386 29.4204 42.6886 29.2404 43.7686 28.7504C45.5786 27.9104 46.9886 26.0004 47.6386 23.5004C47.9886 22.1604 48.0286 21.0404 47.7586 20.0804C47.2986 18.4604 45.8886 17.0404 43.8786 16.2004C42.7486 15.7304 41.5486 15.4904 40.4186 15.4904V15.4704Z" fill="#60301B"/>
</svg>
