<svg width="85" height="85" viewBox="0 0 85 85" fill="none" xmlns="http://www.w3.org/2000/svg">
<path d="M22.1251 83.5656C16.2702 82.2692 11.818 78.0082 9.56528 72.4509C6.71753 65.4166 8.29016 57.0752 12.5618 50.8166C16.844 44.5579 23.5383 40.2332 30.6789 37.6936C35.4818 35.9829 40.6354 35.0053 45.6933 35.6322C54.5765 36.7479 63.2685 41.8802 68.7727 48.9464C74.2769 56.0126 76.4765 65.8735 73.2887 74.2467C72.8637 75.3624 72.343 76.4568 71.7055 77.4557C69.3146 81.196 64.8411 87.9115 52.4089 80.7603C37.4051 72.1321 34.738 86.3602 22.1145 83.5656H22.1251Z" fill="#E7A937"/>
<path d="M25.3977 84.9999C24.3138 84.9999 23.145 84.883 21.8911 84.5961C15.9194 83.2785 11.0634 78.9856 8.57691 72.8438C5.7398 65.8308 6.9299 57.16 11.6903 50.2107C16.8332 42.6876 24.6645 38.7029 30.3281 36.684C35.9173 34.6969 41.1346 33.985 45.8312 34.5694C54.9164 35.7064 63.8102 40.8387 69.6226 48.2768C75.6262 55.9699 77.4539 66.3089 74.298 74.6077C73.8092 75.8935 73.2566 77.0092 72.6085 78.0187C70.2389 81.7165 65.3191 89.399 51.888 81.674C43.8761 77.0623 39.8595 79.2619 35.2054 81.8015C32.3257 83.3741 29.3611 84.9999 25.4083 84.9999H25.3977ZM42.5478 36.5033C38.9882 36.5033 35.1203 37.2365 31.04 38.6923C25.6739 40.6049 18.2571 44.3665 13.4436 51.4114C9.08696 57.7764 7.98186 65.682 10.5533 72.0469C12.7741 77.5405 17.0776 81.3552 22.3587 82.524C27.406 83.6397 30.7 81.844 34.1853 79.9419C38.9669 77.328 43.908 74.629 52.9506 79.8357C64.6284 86.5512 68.5069 80.4945 70.8233 76.8817C71.3865 75.9997 71.8753 75.0115 72.3109 73.8639C75.2118 66.2452 73.501 56.7244 67.9437 49.605C62.5564 42.6982 53.9813 37.7466 45.5656 36.6946C44.588 36.5671 43.5785 36.514 42.5478 36.514V36.5033Z" fill="#17000B"/>
<path d="M3.92283 27.5993C2.58397 29.1507 1.7339 31.1271 1.29824 33.1886C0.88383 35.1756 0.926336 37.4708 2.22269 38.9584C2.5521 39.3409 2.95588 39.6491 3.37029 39.9254C5.60172 41.413 8.35383 41.9443 10.9466 41.4555C13.5393 40.9667 15.9407 39.4897 17.6728 37.3858C18.2997 36.6313 18.8522 35.7706 19.1498 34.8143C19.4367 33.8792 19.4685 32.8804 19.3835 31.9028C19.1816 29.5439 18.1934 27.0787 16.2276 25.9736C15.5476 25.591 14.7825 25.3892 14.0281 25.1873C10.3302 24.2203 6.64306 24.4222 3.92283 27.5993Z" fill="#E7A937"/>
<path d="M9.06567 42.6987C6.83424 42.6987 4.62404 42.0505 2.77514 40.8179C2.20134 40.4353 1.77631 40.0634 1.41503 39.6597C-0.380745 37.5876 -0.0832165 34.5805 0.256812 32.976C0.756228 30.6064 1.74443 28.5131 3.11517 26.9192C5.75039 23.8377 9.51195 22.9239 14.2936 24.1777C15.1012 24.3903 15.9406 24.6134 16.7376 25.0597C18.799 26.2179 20.1804 28.7469 20.4354 31.8284C20.5416 33.1035 20.446 34.1767 20.1591 35.133C19.8616 36.1106 19.309 37.0776 18.4908 38.0764C16.5569 40.4035 13.9536 41.9867 11.1377 42.5074C10.447 42.6349 9.75635 42.6987 9.06567 42.6987ZM4.7303 28.29C3.59333 29.6182 2.76451 31.3821 2.33948 33.401C1.90382 35.4837 2.14821 37.2582 3.01954 38.257C3.24268 38.5121 3.5402 38.7671 3.95461 39.0327C5.9204 40.3397 8.39623 40.8391 10.7446 40.4035C13.0716 39.9678 15.2393 38.6502 16.8545 36.7057C17.492 35.93 17.917 35.2074 18.1296 34.4955C18.3421 33.8048 18.4058 32.976 18.3208 31.9771C18.1189 29.5969 17.1414 27.6949 15.6962 26.8873C15.1331 26.5686 14.4636 26.3879 13.7517 26.2073C9.7776 25.1659 6.8236 25.8354 4.7303 28.2793V28.29Z" fill="#17000B"/>
<path d="M27.5442 4.46635C24.3139 5.72021 21.4449 8.06853 19.936 11.1925C18.4272 14.3165 18.3953 18.1949 20.2017 21.1596C20.7861 22.1159 21.5406 22.9553 22.3162 23.7417C23.1238 24.5705 23.9951 25.3674 25.0365 25.8562C26.6835 26.6425 28.5749 26.6 30.4025 26.515C31.9858 26.4406 33.6222 26.3237 35.0567 25.6437C36.5868 24.9105 37.745 23.5823 38.7014 22.1903C39.9977 20.3201 41.039 18.2162 41.3472 15.9635C41.7616 12.9351 40.7734 9.73679 38.7226 7.46285C36.0768 4.54074 31.3057 2.99998 27.5442 4.46635Z" fill="#E7A937"/>
<path d="M28.8725 27.6205C27.3849 27.6205 25.9398 27.4612 24.5904 26.813C23.3896 26.2392 22.4226 25.3572 21.5619 24.4859C20.8181 23.7315 19.9786 22.8176 19.2986 21.7126C17.354 18.5354 17.2371 14.3276 18.9798 10.7254C20.5312 7.53758 23.5064 4.90237 27.1617 3.4785C31.1145 1.93774 36.4275 3.35099 39.509 6.75127C41.7829 9.25898 42.8668 12.7549 42.3992 16.1021C42.1017 18.2698 41.156 20.5118 39.5727 22.7964C38.7439 23.9865 37.4369 25.676 35.5138 26.6005C33.9411 27.3549 32.2196 27.493 30.4451 27.578C29.9138 27.5993 29.3825 27.6205 28.8619 27.6205H28.8725ZM30.6789 4.96612C29.7226 4.96612 28.7876 5.12551 27.9268 5.45491C24.7709 6.68751 22.1994 8.9402 20.8818 11.6498C19.4686 14.5613 19.5536 18.0679 21.105 20.5968C21.6681 21.5213 22.4227 22.3289 23.0709 22.9877C23.7933 23.7208 24.5903 24.454 25.4935 24.8897C26.8854 25.5485 28.5856 25.5272 30.3495 25.4422C31.954 25.3679 33.3779 25.251 34.5998 24.6665C35.7155 24.1353 36.7463 23.147 37.8301 21.5744C39.2115 19.5767 40.0404 17.6322 40.2954 15.8046C40.6673 13.0631 39.7853 10.2153 37.9364 8.16451C36.0875 6.12434 33.2928 4.95549 30.6789 4.95549V4.96612Z" fill="#17000B"/>
<path d="M54.3208 3.1069C51.4731 4.87079 49.316 7.69728 48.3491 10.8957C47.9134 12.3727 47.7222 13.9559 48.1259 15.4329C48.3703 16.3149 48.8166 17.1225 49.3373 17.8663C52.0575 21.7128 56.871 23.7318 61.5783 23.8061C62.7471 23.8274 63.9266 23.7318 65.0636 23.4236C66.1262 23.1367 67.1356 22.6479 68.0495 22.0316C71.7048 19.5664 73.6918 14.8379 72.9055 10.5025C71.8004 4.43513 65.8605 0.38667 59.8569 1.15174C57.9017 1.39613 55.9891 2.06556 54.3102 3.09627L54.3208 3.1069Z" fill="#E7A937"/>
<path d="M61.8867 24.879C61.7804 24.879 61.6742 24.879 61.5679 24.879C56.1381 24.794 51.2396 22.4032 48.4768 18.4822C47.8074 17.5365 47.3611 16.6333 47.1061 15.7195C46.6917 14.2106 46.7661 12.4892 47.3293 10.5871C48.36 7.14436 50.6977 4.08411 53.7579 2.20333C55.5431 1.09824 57.6045 0.375681 59.7297 0.0994086C66.4027 -0.740036 72.7782 3.82909 73.9577 10.3215C74.8184 15.0501 72.6295 20.2355 68.6448 22.9239C67.5928 23.6358 66.4877 24.1458 65.3507 24.4646C64.32 24.7515 63.1831 24.8896 61.8867 24.8896V24.879ZM54.8736 4.00973C52.2597 5.62486 50.2514 8.24946 49.3588 11.2035C48.9125 12.7124 48.8381 14.0406 49.1463 15.1563C49.3269 15.8258 49.6776 16.5164 50.2089 17.2603C52.5466 20.5755 56.9138 22.6795 61.5998 22.7538C62.8218 22.7751 63.8631 22.6582 64.7876 22.4138C65.7014 22.1588 66.6046 21.7444 67.4547 21.16C70.7593 18.9285 72.5763 14.625 71.8644 10.7041C70.8868 5.31671 65.5633 1.50202 59.9953 2.21396C58.1783 2.44772 56.4038 3.06403 54.8736 4.00973Z" fill="#17000B"/>
<path d="M68.8782 28.4495C66.498 30.3834 65.563 33.9112 66.6787 36.7695C67.1887 38.0659 68.0601 39.1922 69.0483 40.1698C70.5678 41.6681 72.5123 42.8794 74.6481 42.9644C76.0295 43.0176 77.379 42.6031 78.6434 42.0612C80.1523 41.4237 81.6399 40.5523 82.5325 39.171C83.7757 37.2264 83.5313 34.5912 82.3837 32.5829C79.8548 28.1626 73.3624 24.7942 68.8782 28.4388V28.4495Z" fill="#E7A937"/>
<path d="M74.8927 44.0376C74.7971 44.0376 74.7015 44.0376 74.6058 44.0376C71.8962 43.9314 69.686 42.2844 68.3047 40.9349C67.0615 39.7129 66.2008 38.4803 65.6907 37.1627C64.405 33.8687 65.457 29.8627 68.2091 27.6313C70.1006 26.1011 72.4275 25.538 74.9459 26.0055C78.2718 26.6218 81.5551 29.002 83.3084 32.0729C84.7535 34.6019 84.796 37.609 83.4253 39.7554C82.2883 41.5299 80.3863 42.4863 79.0581 43.0494C78.038 43.4851 76.5292 44.0376 74.8822 44.0376H74.8927ZM69.5479 29.2783C67.529 30.9147 66.7322 33.9643 67.6779 36.387C68.0816 37.4177 68.7723 38.4059 69.803 39.4154C70.9081 40.5098 72.6613 41.8275 74.6908 41.9125C75.6897 41.9443 76.816 41.6893 78.2292 41.0943C79.9294 40.3717 81.0132 39.5854 81.6295 38.6078C82.5646 37.1414 82.5009 34.9419 81.4595 33.1249C80.025 30.6171 77.2517 28.5982 74.5527 28.0988C73.2351 27.8544 71.3012 27.8544 69.5479 29.2783Z" fill="#17000B"/>
</svg>
